<?xml version="1.0" standalone="no"?>
<!DOCTYPE svg PUBLIC "-//W3C//DTD SVG 20010904//EN"
 "http://www.w3.org/TR/2001/REC-SVG-20010904/DTD/svg10.dtd">
<svg version="1.0" xmlns="http://www.w3.org/2000/svg"
 width="1280.000000pt" height="762.000000pt" viewBox="0 0 1280.000000 762.000000"
 preserveAspectRatio="xMidYMid meet">
<metadata>
Created by potrace 1.15, written by Peter Selinger 2001-2017
</metadata>
<g transform="translate(0.000000,762.000000) scale(0.100000,-0.100000)"
fill="#000000" stroke="none">
<path d="M8754 7530 c-137 -92 -182 -108 -230 -82 -19 10 -38 1 -160 -79 -77
-50 -143 -95 -147 -99 -8 -7 30 -82 45 -88 24 -10 -2 -44 -73 -96 -72 -53 -80
-62 -74 -84 9 -36 37 -67 60 -67 21 0 32 -28 34 -84 1 -39 -17 -72 -192 -351
-501 -799 -1144 -1640 -1725 -2257 -419 -444 -890 -843 -1268 -1073 -79 -48
-107 -60 -144 -61 -44 -2 -44 -2 -10 -8 28 -5 31 -8 17 -14 -27 -10 -62 -9
-94 5 l-28 11 35 7 35 7 -36 2 c-22 0 -46 -6 -60 -17 -68 -53 -135 -80 -314
-128 -175 -47 -190 -49 -193 -32 -3 15 -13 18 -59 18 -130 0 -465 100 -865
258 l-217 85 6 29 c5 27 4 28 -33 28 -22 0 -124 4 -229 10 -104 5 -299 14
-432 20 l-242 12 -51 -28 c-40 -22 -48 -30 -35 -36 8 -5 15 -22 15 -38 0 -16
5 -32 10 -35 20 -12 9 -84 -24 -167 -60 -148 -133 -304 -323 -683 -270 -540
-298 -590 -333 -605 -22 -9 -32 -22 -39 -49 -21 -84 -29 -121 -26 -121 3 0
188 96 593 307 l162 84 0 -339 0 -340 -92 -6 c-51 -4 -196 -13 -323 -22 -600
-39 -1168 -100 -1560 -167 l-130 -23 -3 -567 -2 -567 6370 0 c3503 0 6370 3
6370 8 0 4 14 277 30 607 16 330 27 601 26 603 -4 4 -490 27 -1091 52 -275 11
-542 23 -593 26 l-92 6 0 810 c1 769 1 812 19 846 18 36 34 101 46 193 l6 46
297 41 c163 23 520 62 792 87 568 52 580 53 580 65 0 5 -13 7 -30 4 -19 -4
-30 -2 -30 5 0 6 14 14 30 18 17 3 30 9 30 14 0 5 7 9 16 9 13 0 14 17 7 148
-4 81 -7 209 -8 285 l0 138 -88 -7 c-83 -6 -89 -5 -112 16 -13 13 -22 26 -20
30 3 4 54 11 115 15 100 7 110 9 110 27 0 18 -5 19 -85 12 l-85 -7 0 112 c0
62 3 110 8 108 4 -3 38 -30 77 -61 38 -30 71 -53 74 -50 2 2 -17 24 -42 49
-26 25 -47 50 -47 56 0 6 -14 31 -31 56 -31 44 -31 47 -30 151 1 59 3 108 5
109 2 2 31 -17 65 -42 63 -47 71 -51 71 -37 0 5 -31 31 -70 58 l-70 49 0 53
c0 60 -4 60 82 -5 31 -24 59 -43 62 -43 20 0 -3 24 -69 71 -65 46 -75 57 -75
83 0 30 1 30 68 -37 37 -37 71 -67 75 -67 23 0 -9 50 -72 114 -59 59 -72 78
-69 99 l3 26 79 -50 c43 -28 81 -47 85 -44 3 4 -3 13 -14 21 -11 8 -19 22 -17
30 2 8 -28 44 -67 81 l-71 65 0 54 c0 30 3 54 8 54 4 0 29 -18 56 -40 26 -22
53 -40 60 -40 12 1 -94 99 -106 100 -9 0 -11 70 -3 70 3 0 30 -14 61 -31 30
-17 58 -29 61 -26 3 4 -9 14 -26 24 -58 32 -67 44 -13 18 28 -14 52 -21 52
-15 0 5 -31 26 -70 45 -64 32 -70 38 -70 66 0 33 -2 34 70 -16 44 -31 69 -38
71 -22 0 5 -32 31 -70 59 -55 38 -71 55 -71 74 0 13 2 24 6 24 3 0 31 -18 63
-40 52 -35 59 -37 64 -21 3 14 -12 28 -64 60 -77 48 -96 81 -31 54 20 -8 49
-21 63 -29 23 -12 29 -11 39 2 7 8 11 16 9 18 -2 2 -37 22 -77 46 -40 23 -71
45 -68 47 3 3 32 -11 64 -31 61 -37 72 -41 72 -28 0 4 -32 25 -70 47 -38 22
-70 43 -70 48 0 11 13 9 35 -6 56 -38 95 -58 95 -49 0 6 -15 20 -32 32 -18 12
-24 19 -13 15 83 -29 69 -8 -20 29 -36 16 -65 34 -65 42 0 19 1 19 70 -22 33
-19 66 -34 73 -31 7 2 -3 11 -20 21 -18 9 -33 19 -33 22 0 2 14 -2 30 -11 17
-9 30 -11 30 -5 0 6 -34 27 -75 47 l-75 37 0 43 0 43 60 -30 c61 -31 80 -36
80 -22 0 5 -31 23 -69 42 l-70 33 6 121 c3 67 7 122 9 124 1 2 28 -4 59 -14
64 -20 74 -15 70 39 l-2 30 -724 234 c-398 128 -788 254 -866 279 -135 42
-142 46 -130 64 6 11 17 20 23 20 13 0 24 23 24 50 0 14 -11 22 -37 29 -21 6
-85 26 -142 45 -77 25 -110 32 -130 26 -83 -26 -124 -22 -250 26 -67 25 -131
44 -142 41 -21 -6 -24 8 -9 47 6 18 14 24 26 19 16 -6 34 11 34 34 0 6 -77 37
-172 69 l-171 57 -102 -33 -102 -33 -144 48 c-79 26 -169 58 -199 71 -30 12
-122 44 -205 70 -82 26 -151 48 -153 49 -9 7 12 55 26 60 20 6 57 54 49 62 -6
6 -377 133 -386 132 -3 0 -65 -40 -137 -89z m1994 -697 c-16 -2 -40 -2 -55 0
-16 2 -3 4 27 4 30 0 43 -2 28 -4z m-2488 -33 c0 -5 -4 -10 -10 -10 -5 0 -10
5 -10 10 0 6 5 10 10 10 6 0 10 -4 10 -10z m-8 -99 c-5 -3 -62 -89 -127 -191
-65 -102 -124 -192 -132 -200 -9 -8 3 14 26 50 22 36 84 136 138 222 56 90 99
151 101 141 2 -8 0 -18 -6 -22z m6 -52 c0 -18 -5 -37 -11 -44 -21 -21 -250
-405 -245 -410 3 -3 56 79 118 182 62 104 120 195 128 203 33 34 -4 -42 -116
-240 -154 -273 -140 -258 -141 -159 l0 84 97 155 c131 211 162 260 166 260 2
0 3 -14 4 -31z m2797 11 c13 -6 15 -9 5 -9 -8 0 -22 4 -30 9 -18 12 -2 12 25
0z m82 -26 c-3 -3 -12 -4 -19 -1 -8 3 -5 6 6 6 11 1 17 -2 13 -5z m-117 -20
c0 -2 -7 -4 -15 -4 -8 0 -15 4 -15 10 0 5 7 7 15 4 8 -4 15 -8 15 -10z m177 0
c-3 -3 -12 -4 -19 -1 -8 3 -5 6 6 6 11 1 17 -2 13 -5z m43 -14 c8 -5 11 -10 5
-10 -5 0 -17 5 -25 10 -8 5 -10 10 -5 10 6 0 17 -5 25 -10z m-215 -17 c19 -9
35 -20 35 -25 0 -12 -12 -9 -34 7 -14 10 -23 12 -32 4 -14 -12 -29 5 -19 21 8
13 8 13 50 -7z m130 -41 c-4 -5 -75 37 -75 44 0 3 18 -5 40 -17 22 -12 38 -25
35 -27z m5 -39 c0 -18 -5 -17 -50 12 -54 34 -51 50 5 23 25 -12 45 -28 45 -35z
m-180 12 l24 -25 -32 16 c-18 8 -30 20 -27 25 8 12 8 12 35 -16z m526 -50
l234 -76 0 -44 c0 -25 -3 -45 -7 -44 -13 0 -479 238 -469 238 4 1 114 -33 242
-74z m229 -193 c-5 -5 -445 212 -470 232 -11 9 91 -38 227 -106 136 -67 245
-124 243 -126z m-697 116 c19 -27 -5 -23 -28 5 -10 12 -33 38 -49 58 -50 60
-35 68 17 10 26 -30 53 -63 60 -73z m323 6 c98 -58 179 -108 179 -110 0 -7
-263 127 -317 162 -46 29 -67 54 -47 54 3 0 86 -48 185 -106z m-3238 -280
c-104 -237 -129 -287 -131 -261 -2 23 31 110 123 320 69 158 126 293 127 300
1 7 3 -5 5 -26 4 -32 -17 -88 -124 -333z m2827 303 c0 -5 -4 -5 -10 -2 -5 3
-10 14 -10 23 0 15 2 15 10 2 5 -8 10 -19 10 -23z m617 -105 c95 -54 173 -103
173 -111 0 -11 -4 -11 -22 1 -13 8 -105 63 -205 122 -101 60 -183 110 -183
112 0 7 50 -19 237 -124z m-587 37 c26 -50 26 -51 -15 -32 -30 14 -35 22 -35
50 0 43 24 35 50 -18z m373 -67 c81 -57 147 -106 147 -108 0 -2 -16 3 -36 11
-20 8 -38 15 -40 15 -5 0 -214 168 -234 188 -13 13 -13 14 1 6 8 -5 81 -55
162 -112z m474 81 l53 -17 0 -58 c0 -32 -2 -58 -5 -58 -2 0 -29 12 -60 27
l-55 27 0 48 c0 26 3 48 7 48 3 0 30 -8 60 -17z m-3585 -242 c-5 -3 -62 -141
-128 -306 l-119 -300 -3 68 c-3 68 -2 71 124 368 70 165 124 302 121 305 -6 7
-10 -1 -143 -319 -86 -207 -99 -233 -102 -202 -3 29 24 98 125 330 l128 294 3
-116 c1 -64 -1 -119 -6 -122z m2818 207 c0 -12 -1 -19 -3 -17 -1 2 -9 12 -16
22 -12 14 -11 17 3 17 10 0 16 -8 16 -22z m-2984 -169 c-54 -110 -85 -165 -85
-149 -1 23 158 335 166 327 2 -2 -35 -82 -81 -178z m3065 99 c25 -34 13 -36
-32 -5 -26 17 -35 31 -37 57 l-2 35 25 -30 c14 -16 35 -42 46 -57z m869 47 c3
-2 4 -35 2 -74 l-4 -70 -54 27 -54 26 0 63 0 62 53 -16 c28 -8 54 -16 57 -18z
m-1034 -12 c23 -11 43 -32 56 -56 11 -22 16 -38 11 -36 -4 2 -32 18 -61 34
-38 22 -52 36 -52 53 0 27 0 26 46 5z m1204 -41 l115 -38 3 -97 c1 -53 0 -97
-2 -97 -3 0 -30 12 -61 27 l-55 27 0 78 c0 45 -4 78 -10 78 -6 0 -10 -30 -10
-70 0 -38 -2 -70 -5 -70 -3 0 -32 14 -65 30 l-60 30 0 70 c0 60 2 70 18 69 9
0 69 -17 132 -37z m-4234 -21 c-15 -23 -29 -41 -32 -41 -4 0 0 10 8 23 8 12
21 32 29 44 7 12 15 20 17 18 2 -1 -8 -22 -22 -44z m3790 18 c3 -5 2 -9 -1 -9
-9 0 -65 30 -65 35 0 7 60 -16 66 -26z m4 -104 c0 -10 -34 6 -102 47 -141 84
-143 90 -10 24 66 -33 112 -62 112 -71z m-682 90 c-3 -3 -9 2 -12 12 -6 14 -5
15 5 6 7 -7 10 -15 7 -18z m737 15 c3 -6 -1 -7 -9 -4 -18 7 -21 14 -7 14 6 0
13 -4 16 -10z m-591 -25 c9 -14 15 -25 13 -25 -2 0 -14 11 -27 25 -13 14 -19
25 -13 25 6 0 18 -11 27 -25z m-205 -20 c34 -20 61 -42 61 -50 0 -20 1 -20
-66 18 -33 18 -60 40 -62 50 -5 23 -2 22 67 -18z m881 -35 c0 -15 -5 -13 -65
21 -74 42 -70 57 5 19 33 -17 60 -35 60 -40z m-3937 -58 l-28 -47 -3 30 c-3
19 7 49 25 82 l28 53 3 -35 c2 -26 -5 -50 -25 -83z m3200 103 c10 -7 17 -23
15 -34 -3 -18 -6 -16 -26 14 -23 37 -19 44 11 20z m515 -59 c45 -26 82 -54 82
-61 0 -8 -42 15 -97 52 -92 62 -148 105 -93 71 14 -8 62 -36 108 -62z m-564
14 c-7 -6 -24 22 -23 40 0 9 6 5 14 -10 7 -14 11 -27 9 -30z m403 -60 c50 -41
90 -76 88 -78 -13 -13 -134 78 -240 181 -37 36 78 -42 152 -103z m133 14 c19
-13 30 -24 23 -24 -12 0 -139 84 -163 108 -14 14 66 -34 140 -84z m-399 19
c80 -104 78 -100 34 -73 -88 52 -95 60 -95 96 0 19 4 34 9 34 5 0 28 -26 52
-57z m649 -21 c0 -8 -21 -1 -60 20 -33 18 -60 39 -60 46 0 8 21 1 60 -20 33
-18 60 -39 60 -46z m513 62 l47 -16 0 -109 c0 -60 -2 -109 -5 -109 -2 0 -29
12 -60 27 l-55 27 0 98 c0 110 -2 108 73 82z m-1258 -20 c9 -15 12 -23 6 -20
-11 7 -35 46 -28 46 3 0 12 -12 22 -26z m-134 -15 l59 -32 0 -83 c0 -46 -3
-84 -7 -84 -4 0 -31 14 -59 32 l-53 31 -3 84 c-2 46 -1 83 1 83 2 0 30 -14 62
-31z m334 11 c16 -17 16 -20 3 -15 -9 4 -19 13 -22 21 -7 19 -2 18 19 -6z
m-3474 -61 c-23 -35 -41 -58 -41 -51 0 14 71 124 77 118 2 -2 -14 -32 -36 -67z
m3397 51 c7 -11 11 -20 9 -20 -2 0 -12 9 -22 20 -10 11 -14 20 -9 20 5 0 15
-9 22 -20z m702 -5 c35 -18 50 -31 50 -45 0 -19 -3 -19 -52 10 -29 16 -54 36
-56 45 -5 20 0 19 58 -10z m595 -13 l60 -18 3 -127 c1 -70 0 -127 -3 -127 -2
0 -38 17 -80 37 l-75 37 0 114 c0 103 2 113 18 108 9 -3 44 -14 77 -24z
m-1424 -14 c15 -28 -9 -19 -29 10 -13 20 -13 22 2 16 9 -3 21 -15 27 -26z
m749 -51 c0 -15 -3 -16 -22 -6 -61 32 -98 61 -98 75 0 12 13 8 60 -18 39 -21
60 -39 60 -51z m-310 53 c57 -29 170 -110 170 -122 0 -11 -14 -3 -139 84 -88
61 -97 72 -31 38z m-3622 -102 l-23 -43 -3 33 c-2 20 5 48 20 73 l23 42 3 -31
c2 -18 -6 -48 -20 -74z m4057 41 c17 -16 -5 -9 -55 16 -28 14 -50 30 -50 36 0
10 81 -31 105 -52z m-4137 -74 l-33 -56 -9 29 c-7 24 -2 39 30 91 l39 62 3
-36 c2 -25 -6 -50 -30 -90z m3263 33 c22 -51 34 -92 31 -109 l-4 -29 -42 25
-41 24 -3 91 c-3 113 10 112 59 -2z m969 62 c49 -25 60 -35 60 -55 0 -32 -3
-31 -70 9 -36 21 -56 40 -58 54 -4 28 -3 28 68 -8z m-3950 -327 c-55 -147
-113 -299 -128 -338 l-27 -70 -3 59 c-3 54 5 79 125 379 115 288 128 317 131
279 2 -33 -18 -97 -98 -309z m3040 326 c0 -6 -4 -7 -10 -4 -5 3 -10 11 -10 16
0 6 5 7 10 4 6 -3 10 -11 10 -16z m203 -63 l32 -40 -30 18 c-17 10 -43 39 -59
64 l-28 47 27 -25 c15 -14 41 -43 58 -64z m141 -47 c72 -72 121 -125 108 -117
-35 24 -262 248 -249 248 6 0 69 -59 141 -131z m119 57 c87 -59 109 -83 46
-50 -31 16 -159 114 -159 121 0 5 5 2 113 -71z m175 29 c75 -43 68 -65 -8 -24
-33 17 -60 38 -60 46 0 17 -1 17 68 -22z m-680 16 c8 -5 12 -21 10 -39 l-3
-31 -17 39 c-17 40 -14 47 10 31z m140 -35 c34 -21 62 -41 62 -45 0 -14 -117
52 -130 72 -6 11 -8 17 -3 15 4 -3 36 -22 71 -42z m720 -45 c3 -18 -2 -17 -52
12 -35 20 -55 39 -56 50 0 17 6 15 53 -12 31 -18 53 -38 55 -50z m-368 -72
c99 -95 100 -97 21 -28 -114 100 -193 175 -156 150 17 -11 77 -66 135 -122z
m90 131 c8 -5 12 -11 10 -14 -3 -2 -14 2 -24 10 -22 15 -10 19 14 4z m-3714
-71 c-14 -30 -25 -48 -25 -42 -1 14 41 104 46 99 2 -1 -8 -27 -21 -57z m3239
-73 c40 -69 71 -126 68 -126 -3 0 -25 12 -49 27 -34 22 -48 40 -73 97 -26 60
-44 152 -25 134 3 -4 39 -63 79 -132z m64 -24 c53 -81 101 -153 105 -159 4 -7
-6 -5 -24 5 -28 15 -71 82 -198 306 -3 5 0 6 7 2 6 -4 56 -74 110 -154z m741
148 c8 -5 11 -10 5 -10 -5 0 -17 5 -25 10 -8 5 -10 10 -5 10 6 0 17 -5 25 -10z
m185 -17 c50 -25 55 -30 55 -60 0 -18 -2 -33 -5 -33 -3 0 -30 14 -60 31 -47
26 -55 35 -55 60 0 16 2 29 5 29 2 0 29 -12 60 -27z m-4474 -53 c-23 -35 -41
-57 -41 -49 0 17 70 123 76 116 3 -3 -13 -33 -35 -67z m4054 35 c30 -19 55
-41 55 -49 0 -10 -20 -1 -60 26 -33 23 -60 45 -60 50 0 13 8 10 65 -27z m-214
4 c69 -34 129 -87 129 -116 0 -22 -2 -23 -18 -11 -24 17 -166 148 -160 148 2
0 24 -10 49 -21z m-3706 -26 c-1 -25 -14 -59 -38 -98 l-37 -60 0 41 c0 28 10
59 33 97 17 31 35 56 38 57 3 0 5 -17 4 -37z m3483 -38 c17 -15 211 -319 207
-323 -1 -2 -31 15 -65 36 -57 36 -71 54 -166 198 -57 87 -104 160 -104 162 0
6 113 -58 128 -73z m567 41 c17 -14 14 -14 -17 1 -21 9 -38 21 -38 25 0 10 25
-2 55 -26z m205 -29 c0 -5 -21 3 -47 18 -71 41 -76 51 -10 19 31 -16 57 -32
57 -37z m-4206 -45 c-27 -55 -28 -56 -32 -27 -5 38 38 123 51 100 5 -10 -1
-35 -19 -73z m3879 40 c26 -19 46 -37 43 -39 -6 -6 -116 68 -116 79 0 11 8 6
73 -40z m266 12 c34 -20 61 -43 61 -50 0 -19 0 -19 -69 22 -34 20 -61 43 -61
50 0 19 0 19 69 -22z m-1074 -32 c29 -26 30 -30 25 -84 l-5 -58 -52 37 -53 37
0 63 0 64 28 -16 c15 -9 41 -28 57 -43z m413 28 c45 -28 40 -35 -8 -10 -38 19
-49 30 -32 30 4 0 22 -9 40 -20z m952 -5 c47 -24 50 -27 50 -65 0 -22 -2 -40
-5 -40 -3 0 -30 14 -60 31 -50 28 -55 34 -55 65 0 41 6 41 70 9z m-4613 -109
l-34 -57 -7 32 c-5 25 1 43 32 93 l37 61 3 -36 c2 -27 -6 -51 -31 -93z m468
77 c-4 -27 -60 -195 -124 -375 -111 -313 -116 -325 -119 -275 -2 45 10 84 89
292 50 132 104 277 121 323 16 45 32 82 35 82 2 0 1 -21 -2 -47z m3730 30 c19
-9 35 -23 35 -30 0 -9 -13 -4 -40 13 -57 38 -55 46 5 17z m-15 -35 c29 -19 50
-41 50 -51 0 -15 -9 -12 -55 20 -30 21 -55 44 -55 51 0 17 4 16 60 -20z m285
5 c30 -15 55 -33 55 -41 0 -16 1 -16 -68 23 -28 17 -52 33 -52 38 0 11 5 9 65
-20z m-365 -69 c0 -17 -4 -23 -12 -18 -28 17 -108 88 -108 96 0 4 27 -5 60
-22 50 -25 60 -35 60 -56z m-257 -126 c69 -93 117 -168 115 -178 -3 -16 -138
149 -283 344 l-30 40 40 -23 c29 -16 74 -69 158 -183z m-430 162 c3 -14 1 -20
-6 -17 -7 2 -14 14 -15 26 -4 28 13 20 21 -9z m912 2 c39 -21 51 -33 53 -55
l3 -28 -65 43 c-61 40 -83 68 -53 68 6 0 35 -13 62 -28z m468 -23 c43 -21 47
-26 47 -59 0 -20 -3 -39 -6 -43 -3 -3 -39 11 -80 31 l-74 36 0 43 0 43 33 -14
c17 -7 53 -24 80 -37z m-4884 -24 c-30 -49 -49 -68 -49 -48 0 13 73 114 78
109 3 -3 -10 -30 -29 -61z m275 28 c-9 -21 -18 -46 -21 -55 -3 -10 -9 -18 -14
-18 -9 0 1 32 26 80 22 43 28 37 9 -7z m4278 5 c65 -39 63 -37 56 -43 -9 -10
-118 48 -118 62 0 18 3 17 62 -19z m-1078 -106 c0 -34 -1 -62 -4 -62 -3 0 -25
15 -50 34 l-45 33 3 62 4 62 45 -34 c45 -33 45 -34 47 -95z m716 -4 l0 -30
-60 52 c-48 42 -60 58 -60 82 l0 30 60 -52 c48 -42 60 -58 60 -82z m45 122 c3
-5 2 -10 -4 -10 -5 0 -13 5 -16 10 -3 6 -2 10 4 10 5 0 13 -4 16 -10z m-4049
-142 l-34 -73 -1 48 c-1 37 7 62 32 107 l32 59 3 -34 c2 -23 -8 -58 -32 -107z
m-89 -2 c-26 -42 -36 -53 -41 -41 -12 32 -6 54 32 117 l37 63 3 -41 c2 -33 -4
-53 -31 -98z m4598 107 c42 -21 55 -32 55 -50 0 -22 -2 -21 -60 14 -33 19 -60
42 -60 49 0 18 1 18 65 -13z m-227 -73 c3 -8 -6 -7 -24 3 -16 8 -46 22 -66 32
-25 11 -38 24 -38 36 0 17 8 14 62 -20 35 -22 64 -45 66 -51z m-198 48 c45
-30 50 -37 50 -71 0 -43 3 -43 -73 18 -26 21 -37 38 -37 58 0 15 2 27 5 27 3
0 28 -15 55 -32z m-4004 -80 c-23 -51 -24 -52 -25 -21 -1 17 9 53 21 80 21 45
22 46 26 21 2 -16 -7 -51 -22 -80z m3260 81 c19 -22 19 -22 -3 -10 -24 12 -39
31 -25 31 5 0 17 -10 28 -21z m1084 -83 l0 -28 -27 18 c-16 9 -43 27 -60 38
-24 15 -33 29 -33 48 l0 27 60 -37 c50 -31 60 -41 60 -66z m-1292 49 c35 -25
42 -36 42 -64 l0 -35 -46 62 c-25 34 -50 62 -55 62 -5 0 -9 5 -9 10 0 12 8 8
68 -35z m-3316 -90 l-37 -60 -3 37 c-2 29 5 52 30 93 l33 56 7 -33 c5 -27 0
-43 -30 -93z m468 -179 c-48 -145 -89 -249 -102 -263 -12 -13 -23 -21 -25 -19
-2 2 42 129 97 283 55 155 101 287 102 294 1 8 3 -2 5 -21 3 -25 -20 -106 -77
-274z m4209 278 c14 -12 -19 -1 -35 12 -18 14 -18 14 6 3 14 -6 27 -13 29 -15z
m-1151 -11 c19 -17 47 -63 71 -115 22 -49 39 -88 38 -88 -2 0 -36 24 -76 53
l-73 53 -2 62 c0 34 1 62 4 62 3 0 20 -12 38 -27z m465 -86 c34 -38 57 -73 55
-83 -2 -12 -26 13 -74 77 -74 99 -101 142 -62 98 13 -15 49 -56 81 -92z m113
81 l29 -33 -32 29 c-31 28 -38 36 -30 36 2 0 16 -15 33 -32z m-797 -53 c75
-102 70 -117 -16 -47 -39 31 -43 38 -43 80 0 25 2 43 4 41 2 -2 27 -35 55 -74z
m318 33 c24 -16 48 -38 54 -50 8 -15 -7 -8 -52 25 -35 25 -65 51 -67 57 -5 14
2 11 65 -32z m382 -2 c24 -24 42 -48 40 -54 -2 -5 -26 15 -52 44 -59 65 -49
72 12 10z m421 -17 c26 -23 19 -20 -27 11 -35 22 -63 43 -63 46 0 8 52 -25 90
-57z m473 -13 c9 -6 17 -19 17 -29 0 -29 -144 50 -148 82 -4 23 -4 23 55 -10
32 -18 66 -37 76 -43z m-3320 -58 c29 -132 38 -200 38 -272 0 -276 -12 -1243
-17 -1383 l-7 -173 -78 0 -78 0 2 888 2 887 24 70 c12 39 30 78 39 88 16 18
17 18 38 -6 12 -15 28 -57 37 -99z m-1675 23 c-18 -28 -36 -51 -40 -51 -18 0
-5 34 30 81 47 64 56 40 10 -30z m308 42 c-26 -72 -56 -129 -56 -108 0 23 52
144 62 145 4 0 1 -17 -6 -37z m4073 -25 c20 -18 31 -35 29 -48 -3 -18 -6 -17
-55 11 -48 28 -53 34 -53 66 l0 34 23 -18 c13 -10 38 -30 56 -45z m179 -72 c2
-25 0 -46 -3 -46 -4 0 -33 21 -65 48 -55 44 -59 50 -59 90 l-1 43 63 -45 c59
-42 62 -47 65 -90z m-4343 103 c-5 -15 -4 -19 4 -15 7 5 11 -8 11 -41 -1 -33
-11 -70 -34 -118 l-33 -70 -7 49 c-7 43 -4 55 24 108 18 33 30 62 27 65 -3 3
-17 -17 -31 -44 -14 -26 -25 -43 -26 -36 0 11 61 122 68 123 2 0 0 -10 -3 -21z
m4390 3 c-3 -3 -11 0 -18 7 -9 10 -8 11 6 5 10 -3 15 -9 12 -12z m234 -8 c14
-12 -19 -1 -35 12 -18 14 -18 14 6 3 14 -6 27 -13 29 -15z m-36 -32 c26 -17
37 -32 37 -49 l0 -24 -60 32 c-52 28 -60 36 -60 61 0 27 2 28 23 17 12 -7 39
-23 60 -37z m-4439 -71 c-9 -25 -21 -50 -25 -55 -18 -20 -8 63 14 115 l22 54
3 -34 c2 -19 -4 -55 -14 -80z m3243 11 l137 -97 53 -119 c30 -65 52 -120 51
-122 -2 -1 -63 46 -135 104 l-133 107 0 67 c0 39 -5 70 -11 74 -8 5 -10 -11
-7 -55 2 -33 2 -61 -1 -61 -3 1 -27 31 -53 68 -34 47 -48 77 -48 99 0 18 2 33
5 33 2 0 66 -44 142 -98z m254 -91 c30 -52 56 -99 58 -104 2 -4 -34 18 -79 50
-79 57 -83 62 -121 146 -21 48 -39 89 -39 92 0 3 29 -16 64 -42 53 -40 73 -64
117 -142z m164 85 c42 -54 60 -84 47 -77 -12 6 -44 44 -70 84 -88 131 -82 129
23 -7z m200 42 c56 -59 41 -51 -32 16 -28 25 -41 46 -30 46 1 0 29 -28 62 -62z
m471 2 c2 0 4 -9 4 -21 0 -11 -3 -19 -7 -17 -23 10 -113 74 -113 80 0 4 25 -3
56 -17 31 -14 58 -25 60 -25z m312 -39 c3 -8 -28 4 -69 27 -40 22 -75 46 -78
53 -2 7 29 -6 69 -27 41 -22 76 -46 78 -53z m-4910 -59 l-33 -57 -3 43 c-3 33
4 55 30 100 l33 57 3 -43 c3 -33 -4 -55 -30 -100z m3757 83 c25 -24 45 -50 45
-56 0 -14 -78 49 -98 79 -25 38 5 25 53 -23z m403 25 c13 -11 22 -24 20 -30
-2 -6 -16 3 -33 20 -32 33 -23 40 13 10z m-3964 -99 c-34 -82 -44 -94 -44 -54
0 17 14 62 32 100 26 56 32 64 36 44 2 -13 -9 -54 -24 -90z m327 2 c-27 -34
-28 -56 -1 -48 17 5 20 2 20 -24 0 -17 -4 -31 -9 -31 -5 0 -19 -28 -30 -62
-18 -54 -71 -128 -92 -128 -3 0 23 91 60 201 58 178 66 197 69 160 2 -30 -2
-49 -17 -68z m4059 31 c0 -8 -100 61 -100 68 0 5 23 -8 50 -28 28 -20 50 -38
50 -40z m-4672 -69 l-33 -56 -8 35 c-7 29 -4 42 30 95 l38 61 3 -40 c2 -31 -4
-52 -30 -95z m4272 -3 c0 -19 -10 -12 -60 45 -77 88 -78 115 0 38 39 -39 60
-67 60 -83z m-877 85 c41 -35 48 -47 45 -72 -3 -28 -5 -27 -46 37 -24 37 -49
69 -55 72 -7 2 -7 5 -2 5 6 0 32 -18 58 -42z m1260 -25 c35 -23 37 -27 37 -79
0 -52 -1 -53 -22 -42 -13 6 -42 27 -65 46 -40 32 -43 37 -43 85 l0 50 28 -18
c15 -9 44 -28 65 -42z m277 32 c0 -2 -9 0 -20 6 -11 6 -20 13 -20 16 0 2 9 0
20 -6 11 -6 20 -13 20 -16z m-4956 -14 c-10 -16 -20 -28 -22 -26 -4 5 28 56
35 56 2 0 -4 -13 -13 -30z m4536 -41 l35 -31 -62 33 c-42 23 -63 40 -63 52 0
17 2 17 28 -2 15 -11 43 -35 62 -52z m265 35 c41 -28 55 -43 55 -61 0 -27 -1
-27 -72 24 -29 21 -48 42 -48 54 0 25 2 25 65 -17z m156 -6 c92 -57 90 -76 -3
-34 -54 24 -74 39 -76 55 -2 11 0 21 4 21 4 0 38 -19 75 -42z m-5057 -104
c-72 -112 -72 -112 -79 -82 -5 21 7 44 62 121 56 78 69 91 71 72 2 -14 -18
-55 -54 -111z m3516 61 c41 -61 51 -83 48 -110 l-3 -35 -47 40 c-46 40 -46 41
-50 110 -2 39 -2 70 -1 70 1 0 25 -34 53 -75z m1010 -39 c0 -16 -11 -9 -55 34
-30 30 -55 60 -55 68 0 7 25 -8 55 -34 33 -29 55 -56 55 -68z m-440 66 c38
-24 71 -55 90 -85 16 -26 30 -50 30 -53 0 -14 -148 111 -168 141 -12 19 -20
35 -17 35 3 0 33 -17 65 -38z m1040 3 c0 -10 -16 -4 -40 16 l-25 20 33 -16
c17 -8 32 -18 32 -20z m-1515 -13 c-6 -7 -35 18 -35 31 0 5 9 2 20 -8 11 -10
18 -20 15 -23z m-3134 -163 l-20 -44 0 75 c-1 50 5 89 17 117 l17 43 3 -73 c2
-56 -2 -84 -17 -118z m-252 120 c-16 -34 -28 -63 -25 -66 2 -3 15 16 29 43
l24 47 6 -52 c5 -45 2 -62 -26 -124 l-31 -71 -8 39 c-15 68 -4 147 25 198 39
67 43 58 6 -14z m182 -94 l-30 -70 -1 44 c0 26 11 73 28 112 l27 68 3 -42 c2
-29 -7 -63 -27 -112z m3613 121 c22 -17 123 -154 171 -235 10 -17 1 -12 -66
36 -43 30 -73 74 -157 227 -6 10 10 2 52 -28z m376 -119 c0 -26 -1 -27 -20
-14 -35 25 -100 119 -100 146 0 23 6 19 60 -39 42 -46 59 -73 60 -93z m-4081
28 c-22 -48 -34 -64 -37 -51 -2 10 11 51 30 90 23 50 34 66 36 52 2 -12 -12
-53 -29 -91z m4146 75 c21 -22 37 -40 34 -40 -3 0 -23 18 -44 40 -21 22 -37
40 -34 40 3 0 23 -18 44 -40z m213 -54 c2 -14 0 -26 -4 -26 -9 0 -117 101
-123 114 -2 5 25 -7 60 -26 50 -28 65 -42 67 -62z m-1005 6 c14 -16 17 -33 15
-88 l-3 -68 -52 80 c-40 61 -53 89 -53 118 l0 38 38 -30 c20 -16 45 -39 55
-50z m-3615 46 c-8 -13 -34 -54 -58 -93 -39 -64 -87 -126 -65 -85 20 37 128
200 132 200 3 0 -1 -10 -9 -22z m112 -20 c-1 -30 -11 -61 -34 -101 -30 -52
-34 -56 -40 -35 -3 13 -6 32 -6 44 0 22 60 133 73 134 4 0 7 -19 7 -42z m4960
-19 c0 -6 -17 -1 -37 12 -62 36 -72 53 -15 25 28 -15 52 -31 52 -37z m-217 3
c42 -30 47 -38 47 -73 0 -21 -2 -39 -5 -39 -2 0 -29 12 -60 27 l-55 27 0 54
c0 59 -4 59 73 4z m155 -10 c47 -33 62 -50 62 -68 0 -29 2 -29 -87 34 -48 33
-63 50 -63 68 0 29 -2 29 88 -34z m187 -14 c6 -5 -2 -5 -18 1 -49 19 -87 41
-87 52 0 10 82 -31 105 -53z m-725 -83 c0 -30 -1 -30 -55 30 -34 38 -54 69
-55 85 0 22 5 20 55 -30 43 -42 55 -61 55 -85z m-4459 88 c3 -26 -10 -55 -56
-133 -33 -55 -63 -100 -67 -100 -5 0 -8 16 -8 36 0 28 16 62 61 136 34 54 63
98 64 96 2 -2 5 -18 6 -35z m4173 1 c9 -8 16 -30 16 -47 0 -35 -1 -35 -50 47
-22 37 -22 38 -2 27 11 -6 28 -18 36 -27z m-3916 -109 c-30 -72 -33 -75 -36
-45 -2 20 9 60 30 108 30 69 33 73 36 45 2 -19 -10 -62 -30 -108z m3971 112
c12 -15 12 -17 -3 -11 -9 3 -16 13 -16 22 0 8 1 13 3 11 1 -2 9 -12 16 -22z
m334 -46 c32 -31 47 -53 47 -70 0 -23 -6 -19 -65 39 -36 35 -65 73 -65 83 0
23 10 17 83 -52z m-468 -228 c53 -91 95 -166 93 -168 -2 -1 -57 42 -123 96
l-120 99 -51 108 c-78 164 -79 162 20 92 l85 -61 96 -166z m591 252 c62 -40
67 -48 62 -101 l-3 -38 -62 58 c-49 46 -63 64 -63 87 0 16 2 29 5 29 3 0 31
-16 61 -35z m-511 -75 c12 -13 15 -33 13 -71 l-3 -52 -56 84 c-106 160 -102
150 -32 100 34 -24 69 -51 78 -61z m-3822 -129 l-28 -76 -7 74 c-5 61 -3 81
14 120 45 104 43 103 46 27 2 -56 -2 -83 -25 -145z m3145 41 l-3 -73 -47 89
c-30 56 -48 102 -48 123 l0 34 50 -51 51 -50 -3 -72z m446 -267 c55 -74 76
-108 55 -89 -373 339 -369 335 -369 442 l0 74 113 -154 c62 -84 153 -207 201
-273z m-3870 338 c-20 -37 -39 -63 -41 -57 -5 14 67 138 74 130 3 -3 -12 -35
-33 -73z m616 55 c0 -24 -16 -56 -23 -48 -5 6 12 70 18 70 3 0 5 -10 5 -22z
m2878 -53 c23 -36 38 -65 34 -65 -4 0 -27 19 -50 43 -29 29 -42 51 -42 70 0
38 10 29 58 -48z m731 16 c17 -21 31 -46 31 -56 0 -17 -15 -2 -76 79 -25 34
-26 38 -7 28 11 -6 35 -29 52 -51z m691 13 c59 -40 70 -51 70 -75 0 -16 -2
-29 -5 -29 -3 0 -37 16 -75 35 -69 35 -70 36 -70 75 0 22 2 40 5 40 3 0 37
-21 75 -46z m-1032 -244 c77 -169 122 -274 113 -265 -5 6 -93 125 -196 265
-103 140 -193 262 -199 270 -6 8 47 -33 118 -90 124 -101 131 -108 164 -180z
m326 181 c-1 -1 -19 9 -38 24 -24 18 -36 36 -36 52 0 22 4 20 39 -24 21 -26
37 -50 35 -52z m111 48 c40 -42 35 -43 -17 -7 -16 11 -28 26 -28 34 0 20 1 19
45 -27z m-4568 -59 c-32 -55 -37 -57 -37 -12 0 29 8 53 23 73 l22 31 6 -29 c4
-18 -1 -40 -14 -63z m129 -103 l-61 -109 -8 47 c-8 46 -6 51 55 154 l63 106 6
-45 c6 -42 2 -53 -55 -153z m310 32 l-35 -84 -1 52 c0 37 9 69 32 120 l32 68
4 -36 c2 -25 -8 -63 -32 -120z m153 -4 l-13 -40 -6 50 c-5 34 -2 66 9 100 l16
50 3 -60 c2 -33 -2 -78 -9 -100z m-331 -47 c-36 -79 -48 -75 -48 16 0 47 6 70
33 118 l32 59 7 -62 c6 -55 4 -68 -24 -131z m85 81 c-15 -38 -30 -69 -33 -69
-17 0 -6 54 22 114 43 90 52 54 11 -45z m4437 -32 c0 -18 -2 -17 -37 3 -59 35
-93 76 -93 112 l0 32 65 -64 c36 -35 65 -73 65 -83z m262 63 c15 -13 19 -26
16 -68 l-3 -51 -57 50 c-56 49 -58 52 -58 101 l0 50 41 -34 c23 -18 50 -40 61
-48z m-181 9 c51 -45 59 -57 59 -88 l0 -35 -65 64 c-42 42 -65 72 -65 87 0 13
3 23 6 23 3 0 32 -23 65 -51z m199 10 c0 -5 -13 0 -30 13 -16 12 -30 23 -30
25 0 2 14 -3 30 -12 17 -9 30 -20 30 -26z m-1272 -199 l-3 -125 -52 95 c-52
93 -53 96 -53 180 l0 85 55 -56 56 -55 -3 -124z m801 195 c38 -23 41 -29 41
-70 0 -25 -2 -45 -5 -45 -7 0 -105 132 -105 143 0 12 18 5 69 -28z m-3781
-110 c-20 -91 -36 -136 -50 -150 l-21 -20 7 20 c4 11 23 76 43 145 34 122 42
145 48 138 2 -2 -10 -61 -27 -133z m2838 3 c13 -26 24 -60 24 -75 -1 -27 -2
-26 -50 26 -49 54 -50 56 -50 120 l0 66 26 -45 c14 -25 37 -66 50 -92z m856 9
c1 -26 1 -47 -2 -47 -3 0 -20 24 -37 53 -18 28 -43 68 -55 87 l-23 34 57 -39
c53 -38 56 -42 60 -88z m-148 -3 c3 -9 6 -46 6 -82 l0 -67 -75 129 c-41 71
-75 130 -75 132 0 10 139 -98 144 -112z m-4404 60 c0 -34 -45 -124 -62 -124
-4 0 -8 17 -10 38 -2 28 4 47 27 79 17 23 33 42 38 43 4 0 7 -16 7 -36z m65
16 c-4 -11 -2 -20 4 -20 21 0 11 -83 -14 -124 l-24 -39 -7 37 c-5 30 -2 47 16
78 12 21 20 42 17 45 -3 2 -12 -8 -21 -24 -8 -15 -15 -23 -16 -16 0 13 39 83
47 83 2 0 1 -9 -2 -20z m4406 -32 c17 -29 39 -64 48 -78 14 -22 11 -21 -34 11
-45 31 -50 40 -53 77 -2 23 -1 42 2 42 2 0 19 -24 37 -52z m738 11 c63 -36 71
-44 71 -71 0 -27 -2 -29 -17 -17 -90 69 -150 129 -129 129 2 0 36 -18 75 -41z
m-4813 -100 c-30 -65 -34 -70 -35 -42 -1 28 8 53 52 153 l11 25 4 -31 c2 -20
-9 -57 -32 -105z m4218 72 c-7 -7 -44 31 -44 46 0 8 10 2 24 -14 13 -15 22
-30 20 -32z m-3828 -102 c-40 -115 -60 -158 -84 -182 -18 -17 -32 -26 -32 -19
0 6 20 74 45 149 40 120 51 142 83 170 20 18 38 33 38 33 1 0 -22 -68 -50
-151z m-606 6 c-37 -69 -60 -102 -60 -87 0 27 114 230 118 210 1 -7 -24 -63
-58 -123z m337 -45 c-9 -26 -25 -64 -34 -86 l-18 -39 -5 75 c-5 68 -3 82 25
149 l30 74 9 -63 c8 -51 6 -73 -7 -110z m4305 18 c3 -15 3 -28 0 -28 -2 0 -30
19 -63 41 l-59 42 0 51 1 51 59 -65 c34 -37 60 -76 62 -92z m-4229 -2 c-7 -22
-19 -46 -26 -54 -10 -13 -13 -9 -18 24 -5 29 0 56 20 107 l26 68 6 -53 c3 -33
1 -68 -8 -92z m4620 84 l66 -55 0 -57 c1 -32 -2 -58 -5 -58 -3 0 -37 28 -75
63 -69 62 -69 62 -69 115 0 30 4 52 8 50 5 -1 38 -28 75 -58z m-4311 -10 c-3
-47 -8 -63 -25 -75 -11 -8 -22 -13 -23 -12 -4 4 25 127 32 138 13 22 19 4 16
-51z m3243 -375 c148 -224 265 -412 263 -421 -2 -12 -92 77 -280 277 l-277
294 -1 139 c0 116 2 137 14 127 7 -6 134 -193 281 -416z m781 347 c-8 -7 -86
51 -86 65 0 9 17 0 45 -23 24 -21 43 -40 41 -42z m-297 4 c45 -56 66 -106 44
-106 -5 0 -29 16 -55 35 -46 34 -48 37 -48 85 0 28 2 50 4 50 2 0 27 -29 55
-64z m439 0 c36 -34 42 -46 42 -80 l0 -40 -60 59 c-50 49 -60 65 -60 93 0 40
3 38 78 -32z m-4816 -13 c3 -62 0 -76 -35 -153 -22 -47 -46 -101 -55 -120
l-16 -35 -11 80 -11 80 56 107 c30 59 58 108 62 108 3 0 8 -30 10 -67z m4574
39 c-4 -3 -14 2 -24 12 -16 18 -16 18 6 6 13 -6 21 -14 18 -18z m-4929 -118
l-25 -36 -4 54 c-3 45 0 58 22 87 l25 35 3 -52 c2 -41 -2 -59 -21 -88z m83 77
c-30 -49 -48 -67 -37 -37 11 28 58 98 63 93 3 -3 -9 -28 -26 -56z m334 -63
c-15 -37 -31 -68 -36 -68 -18 0 -6 63 25 126 29 59 32 63 35 38 2 -15 -9 -58
-24 -96z m322 43 c-20 -20 -21 -3 -3 48 l12 35 3 -34 c2 -20 -3 -39 -12 -49z
m4032 40 c14 -17 16 -35 2 -26 -5 3 -19 20 -32 38 -20 28 -20 30 -3 17 11 -7
26 -21 33 -29z m-4228 -3 c0 -18 -15 -69 -32 -113 l-33 -80 -3 47 c-2 34 5 65
25 112 15 36 31 66 36 66 4 0 7 -15 7 -32z m271 -50 c-15 -46 -30 -90 -34 -98
-3 -8 -6 13 -6 47 -1 56 2 66 30 98 17 19 33 35 34 35 2 0 -9 -37 -24 -82z
m3841 -41 c1 -26 1 -47 -2 -47 -5 0 -102 145 -109 163 -2 5 21 -8 52 -29 52
-37 55 -42 59 -87z m-239 -1 l97 -80 0 -125 0 -126 -33 35 c-30 31 -65 101
-172 343 -30 68 -36 71 108 -47z m597 71 c54 -32 55 -34 58 -83 2 -31 0 -45
-6 -39 -5 6 -35 39 -66 74 -80 90 -76 102 14 48z m-4925 -115 l-32 -52 -6 42
c-5 36 -1 50 26 94 l32 52 6 -42 c6 -35 2 -49 -26 -94z m114 65 c1 -15 -12
-48 -28 -73 l-28 -46 -7 50 c-6 44 -3 56 21 96 26 43 29 45 35 24 3 -13 6 -35
7 -51z m3620 -64 l0 -48 -44 90 c-24 50 -44 92 -44 95 0 3 20 -16 44 -42 41
-42 45 -51 44 -95z m841 -89 c0 -19 -5 -34 -11 -34 -6 0 -35 24 -65 54 l-54
55 0 78 0 78 65 -99 c48 -72 65 -107 65 -132z m-882 83 c36 -85 42 -107 40
-163 -1 -35 -5 -61 -8 -57 -4 5 -23 49 -42 98 -25 63 -37 112 -40 163 -3 40
-2 70 2 65 4 -4 25 -52 48 -106z m87 58 l28 -50 -32 29 c-18 18 -31 40 -31 55
0 29 -1 30 35 -34z m328 -67 c229 -212 249 -235 285 -320 27 -66 32 -89 32
-160 0 -70 -2 -80 -14 -68 -21 23 -446 670 -440 670 3 0 65 -55 137 -122z
m728 16 c3 -19 3 -34 0 -33 -6 0 -93 116 -100 133 -2 5 18 -8 45 -28 37 -28
50 -46 55 -72z m-60 15 c33 -44 59 -83 56 -85 -5 -5 -97 109 -116 144 -23 42
-1 21 60 -59z m-4902 -3 c1 -24 -56 -134 -64 -124 -1 2 -5 28 -9 58 -6 51 -5
58 26 99 31 43 33 44 39 20 4 -13 7 -37 8 -53z m465 -45 c-33 -81 -44 -94 -44
-55 0 16 15 62 32 103 29 65 33 71 36 46 2 -15 -9 -58 -24 -94z m322 96 c-3
-13 -1 -49 4 -80 7 -44 6 -66 -6 -95 -14 -36 -14 -36 -11 45 2 45 0 80 -5 77
-13 -8 -9 51 4 64 18 18 21 15 14 -11z m138 -36 c-9 -29 -18 -50 -21 -47 -3 2
3 28 12 56 22 67 29 60 9 -9z m4127 -15 c57 -63 54 -64 -23 -8 -30 21 -48 41
-48 54 0 28 10 21 71 -46z m365 -79 c3 -25 -10 -21 -81 24 -62 39 -65 42 -65
81 l0 41 72 -65 c39 -35 72 -72 74 -81z m-4445 -121 c-38 -185 -53 -243 -70
-259 -11 -11 -23 -18 -26 -15 -11 10 105 491 123 511 9 10 18 15 19 10 2 -5
-19 -116 -46 -247z m-927 184 c-37 -55 -43 -43 -8 17 15 26 29 42 31 36 2 -6
-8 -30 -23 -53z m544 -30 c1 -39 -4 -49 -35 -75 l-35 -29 5 39 c2 22 15 65 28
97 20 47 25 53 31 35 3 -12 6 -42 6 -67z m450 -201 c-5 -280 -6 -292 -27 -312
-27 -27 -27 -19 -1 102 12 52 19 95 17 97 -2 2 -23 -13 -47 -33 -41 -35 -43
-36 -37 -13 4 14 26 121 49 238 23 116 44 212 47 212 2 0 1 -131 -1 -291z
m3743 190 c33 -56 40 -75 37 -110 l-3 -43 -52 80 c-46 70 -53 87 -53 130 1 57
2 56 71 -57z m416 49 c47 -48 52 -58 55 -106 2 -29 -1 -52 -7 -52 -5 0 -33 25
-62 56 -49 52 -53 59 -53 105 0 27 4 49 8 49 4 0 31 -24 59 -52z m-4524 23 c3
-12 -4 -28 -19 -42 l-24 -22 17 41 c9 23 17 42 18 42 2 0 5 -9 8 -19z m53
-141 l-25 -65 0 67 c-1 48 5 79 21 115 l23 48 2 -50 c2 -34 -5 -71 -21 -115z
m4094 79 c0 -16 -2 -29 -4 -29 -4 0 -66 99 -66 106 0 3 16 -7 35 -22 26 -19
35 -34 35 -55z m53 36 c30 -37 25 -46 -8 -17 -22 18 -39 52 -27 52 4 0 20 -16
35 -35z m-893 -201 c0 -64 -3 -114 -7 -111 -3 4 -28 57 -55 119 -38 90 -48
123 -48 167 l0 56 55 -57 55 -56 0 -118z m-3842 61 l-33 -60 -7 57 c-7 54 -5
61 25 110 l32 51 8 -49 c7 -44 5 -55 -25 -109z m4940 85 c29 -22 32 -28 32
-77 0 -29 -4 -53 -10 -53 -5 0 -34 25 -65 55 -51 51 -55 59 -55 101 l0 46 33
-24 c17 -13 47 -35 65 -48z m-5025 -67 l-28 -48 -3 48 c-2 35 3 58 20 88 l23
41 8 -41 c7 -35 4 -47 -20 -88z m197 114 c0 -26 -57 -120 -65 -107 -5 7 4 35
21 66 28 53 44 67 44 41z m104 -169 c-36 -82 -50 -105 -55 -91 -14 34 -9 54
44 166 51 109 52 111 55 73 3 -29 -9 -66 -44 -148z m343 160 c-3 -8 -6 -5 -6
6 -1 11 2 17 5 13 3 -3 4 -12 1 -19z m208 -223 c-56 -244 -62 -266 -83 -273
-8 -2 -12 13 -12 50 0 95 124 488 146 465 2 -1 -21 -111 -51 -242z m-425 99
c-12 -29 -28 -58 -36 -65 -22 -18 -18 50 7 108 47 108 43 103 47 54 2 -28 -4
-62 -18 -97z m-573 -22 c-26 -44 -35 -37 -39 30 -3 51 0 68 17 92 l20 28 9
-62 c7 -51 6 -67 -7 -88z m746 27 c-30 -86 -41 -85 -42 6 -1 42 3 54 32 83 30
31 32 32 35 12 2 -12 -9 -57 -25 -101z m4250 70 l57 -40 0 -90 c0 -49 -2 -89
-3 -89 -2 0 -32 44 -65 98 -42 67 -62 109 -62 130 0 18 4 32 8 32 5 0 34 -18
65 -41z m-4048 -135 c-34 -116 -44 -140 -44 -109 -1 22 15 85 34 140 20 55 38
106 41 114 2 8 6 12 9 9 2 -2 -15 -71 -40 -154z m4543 97 c8 -4 12 -18 10 -30
-3 -20 -9 -16 -58 35 l-55 57 45 -27 c25 -15 51 -30 58 -35z m-5427 -18 c-18
-28 -31 -41 -31 -30 0 21 53 104 58 89 2 -6 -11 -32 -27 -59z m294 -16 c6 -78
5 -86 -24 -146 -34 -72 -35 -70 -45 54 -5 63 -3 75 22 122 15 29 30 53 33 53
4 0 10 -37 14 -83z m4379 -29 c54 -94 56 -99 56 -172 0 -42 -3 -76 -7 -76 -4
0 -33 26 -65 57 l-58 57 0 125 c0 76 4 121 9 116 5 -6 35 -54 65 -107z m766
-75 l0 -33 -70 51 -70 51 0 51 0 51 70 -69 c58 -58 70 -75 70 -102z m90 115
c53 -49 53 -50 15 -28 -74 44 -85 52 -85 66 0 22 12 16 70 -38z m-5641 -61 c1
-36 -6 -58 -29 -95 l-30 -47 0 50 c0 28 -3 66 -6 85 -5 28 0 42 23 71 l28 37
6 -27 c4 -14 7 -47 8 -74z m976 33 l-24 -65 0 44 c-1 33 5 51 21 68 12 13 23
22 24 20 2 -1 -8 -32 -21 -67z m3930 -2 c33 -50 40 -67 24 -53 -66 54 -79 70
-79 97 0 15 2 28 4 28 1 0 25 -33 51 -72z m-4381 -60 c-15 -35 -40 -76 -56
-93 l-29 -30 36 85 c20 47 44 103 53 125 l17 40 3 -32 c2 -20 -8 -58 -24 -95z
m178 42 c-25 -62 -30 -69 -35 -49 -12 44 -7 63 25 96 17 18 33 31 35 29 2 -2
-9 -36 -25 -76z m198 52 c0 -17 -10 -38 -24 -51 l-25 -23 17 51 c19 56 32 66
32 23z m3092 -194 c-4 -15 -12 -9 -43 34 -37 49 -39 56 -39 122 l1 71 43 -104
c24 -57 41 -112 38 -123z m1369 141 c31 -39 50 -109 31 -109 -5 0 -34 18 -65
41 l-57 40 0 55 0 55 29 -21 c16 -11 44 -39 62 -61z m-5211 26 c0 -32 -8 -58
-29 -91 l-28 -46 -6 46 c-6 38 -2 52 21 90 15 25 30 46 35 46 4 0 7 -20 7 -45z
m4682 -10 c11 -14 10 -61 -1 -49 -4 5 -21 32 -36 59 l-29 50 30 -25 c16 -14
32 -29 36 -35z m-4624 -101 c-12 -24 -26 -44 -30 -44 -5 0 -8 27 -8 59 0 44 6
70 22 98 l23 38 8 -53 c8 -47 6 -59 -15 -98z m79 53 c-23 -44 -33 -55 -39 -43
-5 10 3 35 24 75 25 44 35 55 39 43 4 -10 -6 -41 -24 -75z m542 22 c1 -30 -5
-41 -34 -63 -19 -15 -35 -24 -35 -20 0 4 12 40 28 80 28 76 40 77 41 3z m3580
-434 l240 -440 -40 -8 c-37 -8 -42 -6 -62 19 -252 320 -252 320 -337 510 l-80
182 0 123 1 124 19 -35 c10 -19 127 -233 259 -475z m-3759 476 c0 -6 -4 -13
-10 -16 -5 -3 -10 1 -10 9 0 9 5 16 10 16 6 0 10 -4 10 -9z m88 -135 c-8 -29
-44 -76 -60 -76 -18 0 -6 68 25 143 l32 80 5 -59 c3 -32 2 -72 -2 -88z m3382
-160 l-1 -61 -22 29 c-12 17 -38 71 -58 120 -32 80 -36 98 -31 155 l5 63 53
-122 c46 -105 54 -132 54 -184z m924 200 c31 -48 55 -93 54 -98 -5 -13 -87 56
-110 91 -18 26 -26 124 -9 106 5 -6 34 -50 65 -99z m150 45 c25 -33 46 -62 46
-66 0 -6 -20 18 -93 113 -5 6 -7 12 -4 12 3 0 26 -27 51 -59z m-4260 -81 l-7
-35 -9 45 c-8 43 -3 93 11 115 9 15 13 -85 5 -125z m3546 -190 l210 -225 -1
-173 c0 -96 2 -176 5 -179 3 -4 6 69 6 160 0 92 4 167 9 167 4 0 36 -31 70
-69 l61 -69 0 -96 0 -95 -32 -5 c-18 -3 -56 -8 -84 -11 l-51 -5 -233 427
c-128 236 -242 444 -253 463 -19 33 -17 32 31 -15 28 -27 146 -151 262 -275z
m709 236 l61 -79 0 -78 c0 -44 -4 -79 -8 -79 -11 0 -85 79 -105 112 -13 20
-17 51 -17 119 0 51 2 90 4 88 2 -2 32 -39 65 -83z m-5288 -161 l-28 -44 -7
95 c-6 93 -6 95 21 129 l28 35 7 -85 c7 -82 7 -86 -21 -130z m169 209 c0 -14
-43 -75 -48 -69 -8 7 28 75 40 75 4 0 8 -3 8 -6z m556 -179 l-31 -80 -9 82
c-9 90 -1 129 38 165 l21 19 6 -53 c6 -45 2 -65 -25 -133z m252 104 l-23 -73
-5 49 c-5 43 -2 54 19 77 14 15 26 26 29 24 2 -3 -7 -37 -20 -77z m4052 22
c23 -18 25 -26 25 -100 0 -45 -2 -81 -5 -81 -15 1 -93 161 -97 199 l-6 44 29
-21 c16 -12 40 -30 54 -41z m-4601 -66 c8 -77 7 -82 -21 -139 -36 -71 -43 -65
-52 49 -6 77 -5 83 27 142 19 38 33 56 35 45 1 -9 6 -53 11 -97z m215 54 c-25
-28 -28 -17 -7 26 16 33 18 35 21 16 2 -13 -4 -31 -14 -42z m4706 23 c0 -8 -1
-13 -3 -11 -1 2 -9 12 -16 22 -12 15 -12 17 3 11 9 -3 16 -13 16 -22z m298
-101 l3 -32 -48 53 c-89 99 -91 104 -23 56 54 -37 66 -51 68 -77z m-5469 39
c1 -14 -9 -41 -21 -60 l-23 -35 -5 45 c-4 33 0 54 14 79 17 30 21 32 27 15 4
-10 8 -30 8 -44z m81 -2 c-1 -48 -6 -72 -24 -101 -27 -44 -36 -34 -36 39 0 43
34 124 53 124 4 0 7 -28 7 -62z m5240 -85 c0 -29 -3 -53 -7 -53 -14 1 -123
160 -123 180 0 17 10 12 65 -28 l65 -47 0 -52z m150 -21 c0 -7 -31 11 -70 39
-64 46 -70 54 -70 87 l0 36 70 -75 c38 -41 69 -80 70 -87z m-5125 61 c-6 -24
-52 -83 -66 -83 -16 0 -10 25 23 100 l32 73 8 -34 c4 -19 6 -44 3 -56z m-447
-4 c-20 -34 -34 -48 -36 -38 -2 9 12 40 30 69 20 33 34 47 36 38 2 -9 -12 -40
-30 -69z m232 -13 c-28 -49 -30 -50 -30 -21 0 17 10 49 22 72 21 38 23 41 30
22 6 -16 0 -36 -22 -73z m310 -30 c-24 -55 -47 -105 -52 -110 -15 -18 -8 93 9
131 20 45 76 109 82 92 2 -6 -16 -57 -39 -113z m310 98 c16 -42 12 -85 -18
-174 l-29 -85 -6 59 c-5 47 -1 71 19 126 13 37 24 74 23 81 -1 19 -37 -61 -39
-86 -1 -11 -6 -2 -11 19 -8 34 -6 42 13 63 28 29 36 29 48 -3z m53 -139 l-18
-60 -6 50 c-4 36 0 68 15 114 l21 65 3 -55 c2 -32 -4 -78 -15 -114z m-1050
-77 l-28 -42 -6 45 c-17 116 -14 154 17 194 l29 39 8 -97 c7 -95 6 -98 -20
-139z m4125 175 l32 -41 -2 -281 -3 -282 -31 53 -31 53 -6 279 c-3 154 -3 275
2 270 4 -5 22 -28 39 -51z m1085 -42 l58 -88 -3 -108 -3 -108 -62 109 -63 110
0 87 c0 48 3 87 8 87 4 0 33 -40 65 -89z m-139 -9 c33 -57 46 -90 46 -118 l0
-38 -50 49 -50 49 0 68 c0 37 2 68 4 68 2 0 25 -35 50 -78z m-4884 -2 c0 -23
-13 -55 -35 -90 l-35 -55 0 57 c0 45 6 66 28 101 29 49 42 45 42 -13z m507
-119 c-28 -27 -54 -48 -56 -46 -2 3 18 55 45 117 l49 113 7 -67 8 -67 -53 -50z
m201 -5 l-33 -91 -6 60 c-6 58 2 91 44 195 9 23 11 22 19 -24 8 -44 5 -60 -24
-140z m203 74 c-8 -21 -10 -16 -10 31 -1 31 2 59 7 63 11 12 14 -67 3 -94z
m3092 70 c4 -17 3 -19 -9 -9 -8 6 -14 18 -14 26 0 20 16 8 23 -17z m-3774
-116 c1 -32 -5 -46 -28 -68 l-29 -28 -4 68 c-3 59 0 76 21 117 l26 47 7 -47
c3 -27 7 -66 7 -89z m212 109 c-8 -15 -10 -15 -11 -2 0 17 10 32 18 25 2 -3
-1 -13 -7 -23z m185 -22 c-15 -15 -16 -13 -4 19 9 26 13 30 16 16 2 -10 -3
-26 -12 -35z m4177 -49 c12 -13 17 -32 15 -54 -3 -33 -3 -33 -65 54 -35 47
-63 89 -63 93 0 8 86 -63 113 -93z m277 38 c0 -23 -2 -22 -25 12 -31 46 -32
54 0 31 14 -11 25 -28 25 -43z m238 -24 c53 -71 62 -89 62 -124 0 -23 -3 -42
-7 -42 -5 0 -35 23 -68 50 l-60 50 0 75 c0 41 2 75 5 75 3 -1 33 -38 68 -84z
m148 38 l64 -46 0 -106 c0 -61 -4 -102 -9 -96 -5 5 -36 47 -70 92 -58 80 -61
86 -61 143 0 32 3 59 6 59 3 0 34 -21 70 -46z m-5394 -16 c5 -60 -26 -144 -43
-117 -23 36 2 169 32 169 4 0 9 -24 11 -52z m604 11 c-13 -32 -14 -32 -15 -8
-1 14 4 30 11 37 19 19 20 7 4 -29z m-915 -80 c8 -97 7 -103 -14 -133 l-22
-31 -10 110 c-10 103 -9 112 10 136 11 15 21 25 23 24 2 -2 8 -49 13 -106z
m628 -16 c-27 -61 -35 -71 -42 -56 -6 14 2 41 29 99 30 62 38 74 42 56 2 -13
-11 -57 -29 -99z m-506 26 c-38 -57 -43 -27 -6 35 22 36 29 42 31 27 2 -11 -9
-39 -25 -62z m246 -9 c-19 -34 -25 -38 -32 -24 -10 17 1 49 31 94 l17 25 3
-27 c2 -16 -7 -46 -19 -68z m980 -16 c-19 -85 -26 -103 -53 -126 -17 -14 -33
-24 -35 -22 -2 2 4 45 14 96 16 84 22 96 54 125 20 17 37 30 39 28 1 -1 -7
-47 -19 -101z m2961 -44 l30 -75 0 -257 c0 -142 -3 -258 -7 -258 -5 0 -32 38
-60 84 l-53 83 0 284 1 284 29 -35 c16 -19 43 -69 60 -110z m688 54 l63 -86
-3 -66 -3 -67 -54 120 c-77 172 -82 185 -73 185 4 0 36 -39 70 -86z m-4109 26
c0 -14 -13 -56 -28 -94 -31 -78 -41 -72 -41 24 0 49 4 64 26 90 29 34 44 27
43 -20z m4534 -45 c40 -60 48 -80 45 -111 l-3 -38 -62 95 c-38 58 -63 106 -63
122 0 24 2 26 18 16 10 -6 39 -44 65 -84z m-4827 44 c-14 -32 -15 -32 -16 -8
0 14 5 30 12 37 18 18 20 8 4 -29z m529 -65 c-3 -23 -12 -49 -19 -59 -12 -17
-14 -16 -20 9 -5 19 1 51 16 95 22 63 23 64 26 31 2 -19 1 -53 -3 -76z m3286
-26 c26 -60 46 -108 44 -108 -2 0 -26 29 -54 65 -48 61 -51 68 -50 122 0 32 3
51 6 43 4 -8 28 -63 54 -122z m-3860 99 c-10 -9 -11 -8 -5 6 3 10 9 15 12 12
3 -3 0 -11 -7 -18z m504 -120 c-10 -29 -23 -63 -28 -77 l-10 -25 -7 33 c-5 23
0 56 19 117 l26 84 9 -41 c7 -31 5 -52 -9 -91z m-1111 9 c6 -104 6 -106 -21
-148 l-28 -43 -9 128 c-8 125 -8 129 14 152 13 13 26 22 30 20 4 -2 10 -52 14
-109z m277 -74 l-36 -64 -6 69 c-6 66 -5 70 30 128 l36 60 6 -65 c5 -61 3 -69
-30 -128z m-62 113 c0 -16 -13 -52 -29 -80 l-30 -50 0 58 c0 42 6 69 23 97 18
32 23 36 29 22 4 -9 7 -30 7 -47z m509 -40 c-14 -26 -59 -75 -71 -75 -13 0 -3
35 35 115 l32 70 7 -45 c3 -25 2 -54 -3 -65z m-102 41 c-3 -12 -18 -50 -34
-85 l-29 -64 -6 52 c-7 56 4 91 37 129 17 20 21 21 29 7 5 -9 6 -26 3 -39z
m692 -43 c-16 -80 -25 -101 -45 -116 -13 -11 -27 -17 -29 -14 -3 3 3 43 12 89
14 65 24 89 47 111 16 15 30 27 32 27 1 0 -7 -44 -17 -97z m3741 -57 c42 -94
61 -148 59 -169 -3 -29 -7 -26 -66 65 l-63 96 -2 80 c-1 45 1 78 4 74 4 -4 34
-69 68 -146z m-4600 68 c1 -30 -5 -46 -23 -63 l-24 -23 -7 41 c-5 32 -2 49 16
81 20 34 25 38 30 23 4 -10 8 -36 8 -59z m357 -49 l-44 -110 -7 69 -8 68 49
49 c27 27 50 46 51 42 2 -5 -17 -58 -41 -118z m218 -39 c-9 -34 -25 -70 -36
-81 -18 -19 -18 -18 -18 30 0 29 11 85 27 133 l28 83 9 -52 c6 -40 4 -67 -10
-113z m182 96 c-13 -12 -17 8 -10 40 l9 33 3 -33 c2 -19 1 -36 -2 -40z m3987
9 c24 -22 27 -32 27 -85 l0 -61 -20 25 c-55 69 -80 115 -80 148 l0 35 23 -19
c12 -10 34 -30 50 -43z m327 17 c0 -14 -19 1 -31 25 -12 22 -12 22 10 3 11
-11 21 -23 21 -28z m-5392 -9 c-3 -17 -1 -54 4 -82 7 -45 6 -58 -14 -94 -12
-24 -26 -43 -30 -43 -18 0 -8 103 13 137 12 19 19 37 16 40 -4 3 -12 -6 -18
-21 -14 -29 -29 -34 -29 -10 0 15 50 104 59 104 2 0 1 -14 -1 -31z m230 -61
c-12 -21 -19 -40 -16 -44 4 -3 13 7 21 22 l14 27 5 -31 c4 -25 -1 -37 -25 -59
l-30 -28 6 29 c2 16 0 43 -6 59 -8 25 -6 37 14 74 l24 43 7 -27 c5 -19 1 -38
-14 -65z m5162 -162 l0 -59 -22 19 c-13 10 -42 36 -65 58 l-43 40 0 101 0 100
65 -100 c61 -94 65 -103 65 -159z m-245 189 l28 -50 -31 29 c-19 18 -32 40
-32 55 0 29 -1 29 35 -34z m-5351 -93 l8 -118 -34 -54 -33 -53 -6 74 c-19 218
-20 208 13 245 17 19 33 32 38 29 4 -2 11 -58 14 -123z m1026 55 c0 -28 -12
-81 -27 -125 l-28 -77 -7 65 c-7 57 -5 73 19 137 30 79 43 79 43 0z m288 22
l-12 -44 -4 33 c-2 18 2 40 9 48 19 23 21 10 7 -37z m4368 -1 l64 -51 0 -71
c0 -40 -4 -66 -9 -60 -23 25 -131 205 -131 219 0 23 7 19 76 -37z m-4780 -193
l-41 -110 -9 72 c-8 68 -7 76 24 155 53 132 54 133 61 58 6 -59 3 -74 -35
-175z m4929 150 c37 -47 65 -89 63 -94 -2 -6 -33 15 -70 45 -63 51 -68 58 -68
95 0 21 2 39 4 39 3 0 35 -38 71 -85z m-5225 68 c-1 -5 -14 -33 -30 -63 l-29
-55 -1 39 c0 27 7 47 22 63 21 23 38 30 38 16z m4091 -362 l78 -176 -40 -9
c-24 -5 -43 -5 -48 0 -13 14 -211 511 -211 530 0 9 32 -25 72 -76 58 -76 86
-125 149 -269z m-4007 275 c-18 -43 -54 -89 -62 -81 -3 2 10 38 29 80 26 59
35 72 42 59 6 -11 3 -30 -9 -58z m593 -38 c-2 -24 -4 -7 -4 37 0 44 2 63 4 43
2 -21 2 -57 0 -80z m225 -47 c-5 -3 -23 -64 -42 -136 -24 -95 -40 -137 -58
-157 -27 -29 -45 -37 -37 -15 3 6 25 107 50 222 38 175 49 213 68 227 l22 17
3 -76 c2 -42 -1 -79 -6 -82z m-312 124 c0 -14 -4 -25 -9 -25 -4 0 -6 11 -3 25
2 14 6 25 8 25 2 0 4 -11 4 -25z m-929 -171 l-28 -46 -7 48 c-10 75 -8 91 22
139 l27 45 7 -70 c7 -67 6 -73 -21 -116z m553 95 c7 -61 5 -72 -33 -165 -25
-63 -40 -90 -41 -74 -1 14 -5 57 -9 95 -8 67 -7 74 27 153 39 93 46 92 56 -9z
m445 -9 c1 -42 -11 -70 -30 -70 -17 0 -18 56 -2 113 16 58 18 60 24 32 4 -16
7 -50 8 -75z m4166 -11 c10 -18 15 -58 15 -110 l0 -81 -65 88 c-64 87 -65 89
-65 152 l0 64 50 -42 c28 -24 57 -55 65 -71z m-4834 -48 c-29 -56 -38 -57 -44
-4 -4 37 0 58 22 101 l26 54 8 -56 c7 -46 4 -62 -12 -95z m4657 89 l43 -59 -3
-116 -3 -116 -40 88 c-33 75 -40 101 -45 176 -3 48 -3 87 0 87 3 0 24 -27 48
-60z m-5137 -23 c-19 -30 -21 -30 -21 -9 0 13 8 37 18 54 15 27 17 28 20 8 2
-11 -6 -35 -17 -53z m244 -41 c-14 -24 -32 -50 -40 -56 -30 -25 -16 40 23 108
l37 67 3 -37 c2 -26 -5 -51 -23 -82z m5329 0 c40 -65 56 -100 56 -125 0 -41 1
-42 -78 79 -45 70 -62 105 -62 130 0 44 9 35 84 -84z m-5774 -38 l11 -138 -25
-42 c-23 -39 -25 -40 -30 -17 -3 13 -8 67 -11 119 -3 52 -8 109 -11 126 -4 24
1 38 21 63 15 17 29 31 30 29 2 -2 8 -65 15 -140z m600 14 l-24 -47 -7 70 c-6
64 -5 71 15 87 21 17 21 16 30 -23 8 -34 5 -48 -14 -87z m881 -107 c-37 -173
-53 -232 -67 -242 -18 -13 -19 -11 -22 31 -2 25 13 123 33 218 33 164 37 174
68 200 17 14 33 25 35 24 1 -2 -20 -106 -47 -231z m-649 183 c-14 -36 -18 -39
-20 -20 -3 19 21 62 34 62 1 0 -5 -19 -14 -42z m458 5 c0 -40 -34 -146 -47
-150 -29 -10 -16 125 15 160 22 24 32 21 32 -10z m-95 -21 c-10 -10 -16 -12
-13 -7 3 6 8 19 13 30 5 14 9 16 12 7 3 -8 -3 -21 -12 -30z m3532 -423 c-12
-3 -55 -9 -94 -12 l-73 -7 0 242 1 243 94 -230 c90 -221 93 -230 72 -236z
m1185 411 c31 -25 58 -49 61 -55 2 -5 2 -63 -1 -127 l-5 -118 -32 0 c-27 0
-37 6 -56 36 -22 35 -43 114 -30 114 3 0 24 -29 46 -65 35 -57 55 -79 55 -58
0 3 -22 40 -49 82 -45 70 -49 82 -56 160 -4 50 -4 82 2 80 5 -2 34 -24 65 -49z
m-5351 -80 c3 -35 -27 -130 -41 -130 -4 0 -11 43 -16 95 -9 94 -9 96 16 120
l25 26 7 -38 c3 -21 7 -54 9 -73z m4597 88 c7 -13 19 -34 28 -48 10 -15 2 -10
-20 12 -35 36 -45 58 -28 58 5 0 14 -10 20 -22z m-4946 -127 l-19 -32 -6 52
c-5 44 -3 59 16 88 l22 36 3 -56 c2 -42 -2 -65 -16 -88z m557 -1 l-34 -82 -8
47 c-7 39 -4 58 14 99 32 76 42 85 53 48 7 -24 2 -46 -25 -112z m350 78 c-1
-29 0 -57 2 -63 8 -28 -32 -135 -51 -135 -6 0 -10 26 -10 57 0 48 4 61 28 86
19 21 22 28 10 24 -10 -4 -18 -4 -18 -2 0 9 32 85 36 85 2 0 3 -24 3 -52z
m297 -74 l-24 -119 -1 106 c-1 100 0 108 22 122 12 8 23 14 25 12 1 -1 -9 -55
-22 -121z m-1481 -84 l6 -115 -29 -43 -30 -44 -7 177 -7 176 23 25 24 26 6
-44 c4 -23 10 -95 14 -158z m235 183 c0 -9 -12 -37 -27 -62 -22 -37 -28 -42
-31 -26 -4 20 37 105 50 105 5 0 8 -7 8 -17z m302 -5 c-7 -7 -12 -8 -12 -2 0
14 12 26 19 19 2 -3 -1 -11 -7 -17z m712 -82 c-14 -42 -31 -76 -35 -76 -25 0
5 126 39 163 28 31 27 -2 -4 -87z m-883 12 c3 -65 0 -80 -16 -98 l-20 -22 -6
24 c-14 48 -9 107 12 143 12 20 23 35 24 33 2 -2 5 -38 6 -80z m728 -34 c-6
-8 -25 -24 -40 -34 l-27 -20 31 83 32 82 8 -48 c7 -34 6 -51 -4 -63z m4740 -2
c34 -51 61 -99 59 -107 -2 -9 -27 7 -70 46 l-68 61 0 56 c0 65 -2 67 79 -56z
m-147 41 c53 -52 58 -61 58 -100 0 -24 -4 -43 -10 -43 -5 0 -10 4 -10 8 0 4
-24 49 -54 100 -30 51 -52 92 -48 92 3 0 32 -26 64 -57z m394 30 c-7 -7 -26 7
-26 19 0 6 6 6 15 -2 9 -7 13 -15 11 -17z m-5532 -5 c3 -13 8 -55 11 -93 l6
-70 -44 -43 -44 -43 -7 32 c-17 89 -2 172 42 222 20 23 31 22 36 -5z m122 -66
c-21 -21 -26 -23 -26 -10 0 10 8 34 17 53 l17 37 9 -27 c8 -23 5 -32 -17 -53z
m544 68 c0 -5 -5 -10 -11 -10 -5 0 -7 5 -4 10 3 6 8 10 11 10 2 0 4 -4 4 -10z
m137 -22 c-3 -7 -5 -2 -5 12 0 14 2 19 5 13 2 -7 2 -19 0 -25z m307 -137 c-4
-9 -6 -19 -6 -24 1 -4 -3 -51 -9 -105 -6 -53 -11 -164 -12 -247 l-2 -149 -55
-17 c-41 -12 -56 -22 -58 -37 -3 -21 -17 -25 -126 -35 l-38 -3 6 45 c4 25 12
71 19 101 l13 55 8 -93 c8 -98 13 -105 32 -44 l12 37 1 -44 c1 -27 5 -41 10
-35 5 5 37 119 72 253 45 175 70 252 86 272 28 33 30 49 4 25 -19 -18 -19 -17
-5 31 8 26 22 80 32 118 l17 70 3 -79 c2 -44 0 -86 -4 -95z m3936 -51 c0 -27
5 -50 10 -50 6 0 10 16 10 36 l0 37 28 -39 29 -39 -26 -6 c-14 -4 -46 -7 -71
-8 -37 -1 -49 4 -77 31 l-33 32 0 114 0 115 65 -86 c60 -80 65 -90 65 -137z
m-5171 144 c-22 -24 -14 -35 9 -12 19 19 14 1 -15 -55 -26 -49 -28 -51 -31
-24 -2 16 0 36 4 45 4 10 8 22 8 27 1 6 11 28 21 49 18 34 20 36 23 17 2 -14
-6 -33 -19 -47z m981 -14 c-7 -38 -17 -67 -22 -64 -4 3 -8 32 -8 64 0 46 4 61
17 69 10 5 20 8 22 5 2 -2 -2 -35 -9 -74z m-1475 -187 l6 -191 -29 -46 c-30
-46 -30 -46 -35 -19 -4 20 3 41 25 76 17 26 28 50 25 53 -2 3 -15 -12 -28 -33
-28 -45 -26 -58 -38 172 l-9 170 32 35 31 35 7 -30 c4 -16 9 -116 13 -222z
m286 111 l-28 -46 -6 53 c-6 46 -3 58 21 96 l27 43 7 -50 c7 -45 5 -55 -21
-96z m559 137 c0 -5 -13 -40 -30 -78 -29 -67 -29 -67 -30 -30 0 39 33 117 50
117 6 0 10 -4 10 -9z m4913 -107 c26 -44 47 -88 47 -96 0 -9 8 -19 18 -23 16
-7 15 -8 -3 -15 -39 -16 -53 -9 -94 45 -40 53 -41 56 -41 132 0 88 -4 91 73
-43z m-4733 -56 c-24 -21 -45 -36 -48 -34 -2 3 13 49 34 103 l39 98 9 -64 9
-65 -43 -38z m-76 45 l7 -92 -32 -35 c-17 -20 -35 -36 -39 -36 -4 0 -10 24
-13 53 -4 42 1 68 27 134 17 45 34 79 37 75 4 -4 9 -48 13 -99z m406 79 c0
-10 -8 -22 -19 -29 -18 -11 -18 -10 -8 22 10 34 27 38 27 7z m82 -71 c4 -69 0
-111 -16 -187 -13 -54 -25 -93 -29 -87 -4 6 -8 73 -9 149 -3 114 0 146 14 177
9 20 21 37 26 37 5 0 12 -40 14 -89z m65 67 c-3 -8 -6 -5 -6 6 -1 11 2 17 5
13 3 -3 4 -12 1 -19z m-1267 -7 c0 -11 -15 -43 -32 -72 -30 -48 -33 -50 -36
-27 -2 14 9 45 25 71 30 50 43 58 43 28z m123 -119 c-16 -12 -19 -9 -26 26 -6
32 -4 47 15 78 l23 39 3 -65 c3 -53 0 -67 -15 -78z m5087 101 c8 -21 17 -42
19 -48 2 -5 -4 -3 -13 5 -18 17 -39 80 -27 80 4 0 13 -17 21 -37z m-436 -113
l97 -125 -37 -8 c-21 -4 -42 -6 -46 -5 -8 3 -128 262 -128 276 0 9 8 -1 114
-138z m-4263 53 l-20 -38 -1 39 c0 24 7 47 18 59 17 19 17 19 20 -1 2 -11 -6
-38 -17 -59z m630 50 c-8 -15 -10 -15 -11 -2 0 17 10 32 18 25 2 -3 -1 -13 -7
-23z m-549 -146 l-29 -68 -7 55 c-5 46 -2 64 21 118 l28 63 8 -50 c6 -43 4
-59 -21 -118z m317 69 c-17 -47 -34 -86 -39 -86 -4 0 -11 24 -14 53 l-8 52 43
37 c24 20 45 36 46 34 2 -2 -10 -42 -28 -90z m184 -90 l-28 -101 -8 79 c-11
98 -3 139 31 171 l27 25 3 -37 c2 -20 -9 -82 -25 -137z m-1413 -39 l10 -187
-24 -36 -24 -36 -6 109 c-12 195 -21 288 -27 278 -3 -5 0 -100 7 -209 l12
-200 -38 -59 -37 -59 -7 153 c-3 85 -7 189 -8 232 l-1 78 63 71 c35 39 65 67
66 62 2 -5 8 -93 14 -197z m5987 141 c35 -34 63 -68 63 -74 0 -6 -23 -15 -52
-18 -47 -7 -54 -5 -70 16 -18 23 -27 138 -11 138 4 0 36 -28 70 -62z m-5407
-132 l-30 -31 0 58 c0 44 7 70 28 110 l27 52 3 -79 c3 -77 2 -81 -28 -110z
m770 164 c0 -11 -4 -20 -9 -20 -5 0 -7 9 -4 20 3 11 7 20 9 20 2 0 4 -9 4 -20z
m-1054 -152 l-34 -61 -7 56 c-7 51 -5 60 26 112 l34 56 8 -52 c6 -47 4 -56
-27 -111z m958 71 c-29 -33 -32 -21 -10 39 l21 57 3 -38 c2 -26 -2 -45 -14
-58z m324 -66 c-4 -147 -23 -170 -31 -38 -7 107 9 217 26 173 5 -12 7 -73 5
-135z m3031 107 c28 -45 31 -58 31 -130 0 -77 -1 -80 -25 -86 -14 -4 -27 -5
-29 -3 -5 6 -17 269 -12 269 2 0 18 -23 35 -50z m-4097 -76 l-19 -37 -7 41
c-5 32 -1 49 16 79 l23 38 3 -42 c2 -27 -4 -55 -16 -79z m288 60 c0 -17 -10
-56 -22 -85 -23 -53 -23 -54 -29 -24 -14 64 -9 112 12 139 25 32 39 21 39 -30z
m-418 -56 c-49 -53 -57 -25 -14 51 l27 50 7 -37 c5 -31 2 -41 -20 -64z m5205
-50 c-12 -3 -34 -6 -49 -7 l-28 -1 0 83 0 82 50 -75 c49 -73 49 -75 27 -82z
m-4728 114 c0 -9 -9 -35 -19 -57 -18 -39 -19 -40 -19 -11 -1 37 20 97 31 90 4
-3 8 -13 7 -22z m467 -92 c-22 -59 -25 -63 -31 -38 -8 30 8 89 34 128 l16 25
3 -25 c1 -14 -9 -54 -22 -90z m-201 38 c-48 -129 -46 -125 -55 -103 -5 11 -9
36 -9 55 -1 29 6 41 41 72 24 21 44 38 45 38 1 0 -9 -28 -22 -62z m-901 -8
c-7 -14 -19 -34 -28 -45 -15 -20 -15 -19 -16 7 0 15 10 44 22 64 19 32 23 34
29 18 3 -10 1 -30 -7 -44z m229 15 c-18 -37 -33 -46 -33 -18 0 18 28 53 41 53
5 0 1 -16 -8 -35z m225 -61 l-43 -89 -3 52 c-3 49 -1 53 40 91 24 22 44 39 46
38 1 -2 -17 -43 -40 -92z m466 -9 c-16 -13 -30 -22 -31 -21 -2 1 7 31 20 65
l22 62 9 -41 c9 -39 7 -43 -20 -65z m4947 73 c11 -21 11 -22 -4 -9 -10 7 -17
17 -17 22 0 15 9 10 21 -13z m-4632 -138 l10 -125 -31 -32 c-39 -41 -48 -31
-48 55 0 58 52 277 57 242 1 -8 7 -71 12 -140z m-510 73 c1 -24 -7 -37 -31
-57 -18 -14 -34 -23 -36 -21 -2 2 9 35 24 74 30 72 42 73 43 4z m300 -68 c-18
-58 -34 -104 -35 -102 -2 1 -8 32 -14 69 -12 77 -3 112 38 145 45 38 48 7 11
-112z m-793 10 l-21 -40 -3 44 c-2 29 3 56 15 78 l18 34 6 -38 c5 -29 1 -48
-15 -78z m242 -108 c-23 -54 -45 -100 -50 -103 -4 -3 -8 30 -8 74 0 72 4 87
42 168 l42 89 8 -65 c7 -62 6 -69 -34 -163z m161 85 c-8 -25 -14 -31 -20 -21
-13 20 -11 87 4 127 l12 35 8 -53 c5 -34 3 -66 -4 -88z m490 -116 c-13 -47
-25 -83 -28 -81 -2 3 -7 44 -12 92 -8 82 -6 94 19 166 l27 78 9 -86 c7 -75 6
-95 -15 -169z m-966 139 l-28 -50 -3 49 c-3 42 1 53 25 78 l28 30 3 -29 c2
-18 -8 -48 -25 -78z m4347 -27 c0 -5 -18 -8 -40 -8 l-40 0 0 73 0 72 40 -65
c22 -36 40 -68 40 -72z m-4503 -15 c-11 -13 -24 -23 -29 -23 -17 0 -7 83 15
122 l22 41 7 -59 c5 -51 3 -62 -15 -81z m293 35 c-10 -10 -22 -18 -25 -18 -11
0 -4 51 12 86 l18 36 7 -43 c6 -36 4 -46 -12 -61z m267 -6 c-20 -43 -26 -49
-30 -32 -5 19 1 39 36 120 l11 25 4 -30 c2 -18 -7 -53 -21 -83z m4858 88 c10
-11 13 -20 7 -20 -6 0 -16 9 -22 20 -6 11 -9 20 -7 20 2 0 12 -9 22 -20z
m-5794 -289 c2 -103 0 -166 -7 -168 -5 -2 -18 83 -31 209 l-22 212 22 24 22
24 6 -69 c4 -37 8 -142 10 -232z m479 281 c0 -9 -9 -23 -21 -30 -21 -13 -21
-13 -3 17 21 36 24 37 24 13z m719 -34 c0 -47 -4 -56 -30 -77 -17 -13 -32 -22
-34 -19 -6 6 49 148 58 148 4 0 7 -24 6 -52z m626 -157 c-63 -240 -63 -240
-64 -171 0 30 12 113 28 183 23 105 33 133 56 157 16 17 29 30 30 30 1 0 -22
-89 -50 -199z m-1533 94 c-28 -46 -29 -46 -34 -21 -4 19 4 41 26 74 29 45 31
46 34 20 2 -16 -8 -44 -26 -73z m6001 70 c15 -13 27 -26 27 -28 0 -2 -92 -10
-205 -17 -194 -12 -207 -11 -225 5 -11 10 -18 21 -14 24 5 5 301 37 364 39 14
1 37 -10 53 -23z m-5524 -47 c0 -46 -8 -79 -28 -123 l-28 -60 -7 94 c-7 93 -7
94 20 122 15 16 31 29 36 29 4 0 8 -28 7 -62z m373 16 l-17 -47 -3 32 c-2 23
2 37 15 47 10 7 19 14 20 14 1 0 -6 -21 -15 -46z m146 -92 c-23 -66 -45 -119
-48 -117 -13 8 -18 138 -7 164 13 32 79 92 90 82 4 -4 -11 -62 -35 -129z m381
-18 c-12 -13 -25 -24 -29 -24 -4 0 3 41 14 90 l21 91 9 -66 c8 -61 7 -68 -15
-91z m-1179 68 c0 -30 -10 -59 -32 -100 l-33 -57 -7 80 c-6 80 -6 80 25 112
36 38 47 31 47 -35z m-540 -160 l23 -214 -31 -31 c-17 -17 -33 -29 -36 -26 -2
2 -10 101 -18 219 l-15 215 25 27 c14 15 27 27 28 25 1 -1 12 -98 24 -215z
m1456 68 c-32 -86 -35 -91 -35 -56 -1 22 11 78 26 124 26 78 29 82 36 56 6
-22 0 -51 -27 -124z m4459 130 c10 -11 16 -22 14 -24 -4 -3 -324 -26 -360 -26
-9 0 -19 8 -22 19 -4 17 7 20 147 33 205 21 200 21 221 -2z m-5295 -30 c0 -43
-18 -88 -44 -109 -14 -12 -16 -9 -16 25 0 37 37 124 52 124 5 0 8 -18 8 -40z
m44 -31 c-25 -28 -28 -17 -7 26 16 33 18 35 21 16 2 -13 -4 -31 -14 -42z m332
-41 c-17 -15 -32 -23 -34 -19 -1 4 10 34 25 67 l27 59 6 -40 c5 -36 3 -43 -24
-67z m133 -10 l-34 -29 -3 48 c-3 42 0 51 25 72 l28 24 9 -43 c9 -42 8 -44
-25 -72z m702 25 l-16 -78 -3 63 c-3 59 7 92 28 92 4 0 0 -35 -9 -77z m3680
33 c-30 -9 -61 4 -61 25 0 15 65 15 78 -1 11 -13 9 -16 -17 -24z m-5131 -12
c0 -11 -16 -35 -35 -54 -32 -31 -35 -32 -35 -13 0 30 53 114 62 99 4 -6 8 -20
8 -32z m363 -55 c4 -80 2 -108 -11 -137 l-16 -37 -9 123 c-7 92 -6 127 3 137
7 8 16 15 20 15 4 0 10 -45 13 -101z m651 17 c6 -52 2 -73 -36 -187 -23 -71
-45 -129 -49 -129 -3 0 -9 37 -12 82 -5 77 -3 87 34 187 21 58 39 113 39 121
1 34 17 -17 24 -74z m4053 48 c-7 -7 -440 -35 -454 -30 -35 14 8 22 210 42
187 18 214 19 230 6 9 -9 16 -17 14 -18z m-4187 2 c0 -8 -15 -53 -34 -102 -36
-94 -43 -93 -47 5 -3 50 -1 55 32 82 38 32 49 35 49 15z m878 -227 c24 0 25
-1 7 -9 -44 -19 -45 -17 -43 123 l2 132 3 -122 4 -123 27 -1z m-2213 10 l14
-214 -28 -29 -29 -28 -7 216 c-4 119 -12 216 -17 216 -5 0 -7 -31 -4 -72 3
-40 8 -141 11 -223 6 -151 6 -151 -19 -174 l-24 -23 -6 43 c-3 24 -10 125 -16
224 l-11 180 57 52 c32 29 60 51 62 49 2 -2 10 -100 17 -217z m514 14 l-24
-38 -8 55 c-5 30 -6 74 -4 98 3 23 0 42 -5 42 -5 0 -6 5 -2 11 4 8 9 7 15 -2
5 -9 11 -5 21 16 12 28 13 25 22 -57 8 -82 7 -89 -15 -125z m501 137 c-7 -22
-22 -47 -32 -57 -10 -9 -15 -19 -10 -22 5 -3 -4 -33 -19 -66 -28 -59 -28 -59
-29 -25 0 20 8 47 17 60 10 14 18 29 18 35 0 5 11 38 25 72 27 70 53 73 30 3z
m129 -36 c-12 -15 -14 -13 -21 12 -5 18 -3 40 4 59 l13 30 9 -42 c6 -32 5 -47
-5 -59z m713 -156 c-8 -29 -10 -23 -16 49 -8 77 -3 143 12 188 10 30 14 -200
4 -237z m-1088 111 c6 -112 5 -134 -9 -156 -9 -13 -18 -23 -20 -21 -2 2 -9 64
-15 137 -11 121 -10 134 6 152 9 10 20 19 24 19 4 0 10 -59 14 -131z m3683
125 c-3 -3 -12 -4 -19 -1 -8 3 -5 6 6 6 11 1 17 -2 13 -5z m588 -3 c6 -11 -28
-18 -137 -25 -46 -4 -78 -2 -78 4 0 19 203 39 215 21z m-3461 -148 c7 -71 7
-71 -26 -102 -33 -31 -33 -31 -40 -8 -13 44 -8 84 19 165 26 78 28 81 34 50 4
-18 10 -65 13 -105z m-502 65 l-27 -63 -3 40 c-3 33 1 44 23 62 14 13 28 23
30 23 2 0 -9 -28 -23 -62z m-649 -18 c-32 -56 -43 -62 -43 -23 0 17 12 40 32
60 42 44 47 27 11 -37z m166 -16 c-46 -48 -55 -42 -23 14 44 75 48 80 52 47 3
-20 -5 -36 -29 -61z m310 3 c1 -40 -3 -52 -26 -72 -16 -13 -31 -25 -35 -25
-17 0 -7 58 19 116 31 68 41 64 42 -19z m895 -74 c-10 -56 -20 -100 -22 -99
-2 2 -7 48 -11 103 -8 97 -8 98 18 126 l26 29 3 -29 c2 -15 -4 -74 -14 -130z
m-1087 15 l10 -133 -28 -29 c-16 -17 -31 -28 -33 -25 -3 2 -8 57 -12 120 -6
110 -5 119 16 158 13 22 27 41 30 41 4 0 11 -60 17 -132z m534 26 c2 -52 -3
-85 -21 -134 -13 -36 -26 -69 -30 -73 -4 -5 -10 31 -13 80 -4 78 -2 96 22 160
30 82 38 76 42 -33z m100 21 c1 -52 -5 -88 -24 -142 -40 -113 -43 -115 -50
-23 -6 75 -4 87 25 165 18 47 36 81 40 77 4 -4 8 -39 9 -77z m283 -54 l-26
-26 6 30 c4 17 15 55 24 85 l17 55 3 -59 c3 -53 0 -62 -24 -85z m-432 83 c-17
-45 -17 -46 -23 -18 -3 18 0 35 9 47 26 30 32 19 14 -29z m-824 -28 c2 -57 -1
-69 -30 -117 l-33 -52 -3 63 c-3 59 -1 65 30 98 20 21 26 33 15 29 -16 -6 -16
-5 -1 18 9 14 17 25 18 25 1 0 3 -29 4 -64z m724 11 c-21 -24 -24 -17 -10 21
10 27 14 29 19 15 4 -10 0 -25 -9 -36z m-660 -144 l-37 -32 -3 53 c-3 47 2 62
30 108 l33 53 7 -75 6 -75 -36 -32z m598 125 c0 -19 -11 -35 -40 -58 -22 -17
-40 -30 -40 -27 0 2 14 35 31 72 31 70 48 74 49 13z m-1170 -181 l13 -218 -39
-40 c-21 -21 -41 -36 -44 -31 -3 4 -3 102 0 217 3 116 3 214 -2 220 -4 5 -8
-25 -8 -65 0 -41 -3 -146 -7 -232 l-6 -157 -39 -6 c-22 -4 -42 -5 -44 -2 -3 3
-12 84 -21 181 -15 171 -15 177 3 191 14 10 21 10 25 2 3 -7 14 -86 24 -177
10 -91 22 -169 27 -175 10 -11 10 -11 -22 235 l-18 145 71 67 c40 36 73 65 73
65 1 -1 8 -100 14 -220z m1288 110 c-11 -20 -13 -18 -19 33 -5 37 -4 60 4 69
18 21 32 -72 15 -102z m-884 22 c-38 -42 -47 -8 -11 46 l22 34 3 -30 c2 -19
-3 -38 -14 -50z m324 -1 l-33 -63 -3 37 c-3 31 2 42 30 67 18 16 35 28 36 26
2 -2 -11 -32 -30 -67z m1122 0 c-10 -40 -20 -82 -22 -93 -3 -11 -8 11 -13 48
-7 63 -6 70 16 93 12 13 26 24 30 24 4 0 -1 -33 -11 -72z m-591 -54 c1 -50
-44 -168 -52 -138 -3 10 -9 62 -13 113 l-6 95 28 23 29 23 7 -38 c4 -20 7 -55
7 -78z m327 -45 c-19 -53 -32 -100 -29 -103 4 -3 -3 -6 -14 -6 -19 0 -18 8 26
138 38 114 46 131 49 102 2 -21 -11 -72 -32 -131z m308 19 c6 -88 5 -97 -11
-97 -10 0 -65 -5 -122 -11 -90 -9 -107 -9 -128 5 -20 14 -22 19 -12 31 11 13
14 11 26 -13 l13 -28 -3 38 c-2 28 2 42 20 59 25 24 28 16 12 -30 -6 -17 -9
-37 -6 -44 2 -7 10 9 17 35 14 54 27 51 33 -8 3 -23 4 -11 4 28 0 64 2 70 31
100 l32 32 0 -51 c0 -67 11 -145 20 -139 3 2 17 54 30 115 27 125 34 121 44
-22z m-1121 -25 l7 -92 -32 -25 c-41 -32 -48 -22 -48 69 0 57 5 79 27 122 33
63 37 56 46 -74z m176 51 c-18 -22 -21 -11 -7 27 11 30 13 31 16 11 2 -13 -2
-30 -9 -38z m64 -10 l-27 -59 -4 37 c-3 31 2 42 25 62 15 13 29 23 31 21 2 -1
-10 -29 -25 -61z m148 44 c-5 -13 -27 -65 -49 -117 l-40 -95 -7 57 c-10 79 -2
100 52 141 27 19 49 36 50 36 1 0 -2 -10 -6 -22z m-753 -154 c-27 -46 -32 -34
-26 63 2 35 0 63 -5 63 -4 0 -5 5 -1 11 5 8 9 8 14 -1 6 -9 12 -6 21 11 13 22
14 19 17 -42 2 -55 -1 -73 -20 -105z m272 124 c0 -28 -9 -57 -25 -83 l-24 -40
-1 37 c0 20 -2 42 -5 50 -6 15 30 78 45 78 5 0 10 -19 10 -42z m-339 -1 c-13
-12 -20 -15 -16 -7 14 26 28 41 33 35 3 -3 -5 -16 -17 -28z m847 -191 c-5 -6
-20 2 -38 19 -16 16 -32 26 -36 23 -3 -4 6 -14 20 -23 14 -10 23 -21 20 -26
-8 -14 -54 -11 -55 4 0 6 -4 3 -9 -8 -7 -16 -9 -17 -9 -3 -1 9 3 19 8 22 5 3
12 18 16 33 3 14 21 61 38 102 l32 76 10 -105 c6 -58 7 -109 3 -114z m420 99
c-18 -16 -29 -23 -26 -15 3 8 14 42 24 74 l19 59 7 -44 c7 -41 6 -46 -24 -74z
m-1090 62 c2 -37 -2 -47 -33 -77 l-35 -34 0 32 c0 28 47 122 61 122 3 0 6 -19
7 -43z m984 -77 l3 -55 -37 -3 c-21 -2 -38 0 -38 5 0 4 12 45 28 90 25 77 27
80 34 50 3 -18 8 -57 10 -87z m-458 101 c3 -5 -1 -14 -8 -20 -12 -10 -13 -8
-9 8 6 23 9 25 17 12z m265 -113 c1 -27 5 -48 10 -48 5 0 23 35 39 78 l30 77
7 -67 c4 -37 5 -74 2 -82 -4 -9 -29 -17 -74 -21 -37 -4 -76 -9 -85 -11 -23 -7
-23 1 6 71 l23 58 7 -57 c4 -31 11 -56 15 -56 4 0 4 30 -1 67 -5 36 -6 78 -2
92 7 24 8 23 15 -14 4 -22 8 -61 8 -87z m-986 30 l-38 -63 -3 34 c-3 28 3 40
35 73 21 21 39 34 41 28 2 -5 -14 -38 -35 -72z m254 17 c-34 -59 -47 -68 -47
-33 0 21 55 88 71 88 5 0 -6 -25 -24 -55z m380 -12 c-5 -7 -13 -13 -18 -13
-14 0 -11 54 4 69 10 10 13 7 18 -16 3 -15 1 -34 -4 -40z m78 12 c-45 -104
-49 -110 -53 -91 -6 29 19 95 42 112 28 19 28 19 11 -21z m-416 -45 c0 -34
-69 -176 -81 -165 -3 3 -18 1 -33 -5 -32 -12 -38 -9 -29 13 5 13 10 14 27 6
21 -10 21 -9 3 5 -16 13 -17 17 -3 37 16 22 16 22 25 -12 10 -32 10 -31 11 23
1 45 8 68 34 111 34 60 45 57 46 -13z m-831 -82 c7 -79 12 -157 12 -174 l0
-31 -102 -19 -103 -19 -3 108 c-4 142 -22 141 -22 -2 0 -85 -3 -110 -14 -114
-25 -10 -35 16 -37 103 l-2 85 59 47 59 48 3 -115 c4 -157 22 -150 22 8 0 108
2 126 19 141 17 16 19 15 25 -21 3 -21 6 -81 6 -133 0 -52 5 -102 11 -110 7
-11 9 15 5 90 -12 213 -12 207 15 229 13 11 27 20 30 21 3 0 11 -64 17 -142z
m582 73 c0 -66 -2 -70 -40 -112 l-39 -44 -2 45 c-1 25 -2 50 -2 55 0 11 71
125 78 125 3 0 5 -31 5 -69z m550 39 c0 -19 -7 -33 -20 -40 -24 -13 -27 4 -8
45 15 34 28 32 28 -5z m-231 -80 c0 -47 -3 -58 -24 -73 l-25 -18 0 60 c0 66
29 136 42 103 4 -9 7 -42 7 -72z m363 -42 c-2 -5 -17 -8 -34 -8 -20 0 -28 4
-25 13 3 6 16 37 29 67 l23 55 5 -60 c3 -33 4 -63 2 -67z m-559 -5 c-26 -50
-43 -66 -43 -43 0 6 5 10 12 10 9 0 9 3 0 12 -7 7 -12 28 -12 47 0 27 7 41 33
62 l32 27 3 -31 c2 -21 -6 -50 -25 -84z m353 65 c-18 -43 -42 -55 -50 -25 -4
16 3 28 27 48 37 32 43 26 23 -23z m110 1 l-14 -34 -1 37 c-1 21 4 38 12 41
18 6 20 -7 3 -44z m-689 -21 c-3 -22 -4 -21 -11 4 -5 16 -5 36 0 45 7 16 8 15
11 -4 3 -13 3 -33 0 -45z m169 37 c-2 -15 -37 -57 -43 -51 -5 5 30 66 39 66 3
0 5 -7 4 -15z m1188 -16 c-7 -11 -44 -12 -44 -1 0 4 5 13 12 20 13 13 42 -4
32 -19z m-1406 -1 c-8 -13 -21 -33 -29 -45 -16 -26 -29 -30 -29 -8 0 8 15 29
33 45 39 36 44 37 25 8z m710 -16 c10 -23 10 -29 -3 -38 -8 -6 -15 -16 -15
-21 0 -11 -193 -38 -223 -32 -13 3 -4 14 35 46 48 39 53 41 56 22 2 -11 -4
-29 -14 -40 -23 -25 -9 -24 27 2 22 15 27 17 23 5 -11 -28 5 -17 21 14 18 36
32 38 38 8 3 -18 5 -16 6 8 1 27 16 54 31 54 3 0 11 -12 18 -28z m-687 -22 c2
-25 -8 -51 -32 -89 l-34 -55 -3 42 c-2 32 4 51 30 90 18 28 34 49 35 48 1 -1
3 -17 4 -36z m197 -30 c-3 -51 -5 -54 -32 -44 -23 9 -20 44 6 71 12 13 23 23
25 23 2 0 2 -22 1 -50z m528 13 c-11 -11 -17 4 -9 23 7 18 8 18 11 1 2 -10 1
-21 -2 -24z m-340 -47 c-5 -19 -13 -26 -31 -26 -30 0 -31 1 -2 50 20 35 23 38
31 20 5 -10 6 -30 2 -44z m-500 -42 l-25 -37 -7 37 c-6 32 -3 41 22 67 l29 31
3 -31 c2 -20 -5 -43 -22 -67z m141 39 c-3 -10 -5 -2 -5 17 0 19 2 27 5 18 2
-10 2 -26 0 -35z m706 30 c-7 -2 -19 -2 -25 0 -7 3 -2 5 12 5 14 0 19 -2 13
-5z m-593 -42 c0 -36 -3 -40 -31 -46 -17 -4 -32 -5 -35 -3 -5 6 49 88 58 88 5
0 8 -18 8 -39z m-126 -23 c6 -34 5 -37 -24 -43 -17 -4 -33 -5 -35 -3 -2 2 7
23 21 47 14 23 27 41 29 39 1 -2 5 -19 9 -40z m-174 -22 c0 -39 -3 -44 -25
-48 -23 -5 -25 -2 -25 27 0 22 7 37 23 48 12 9 23 16 25 16 1 1 2 -19 2 -43z
m342 33 c17 -9 18 -13 7 -20 -23 -15 -39 -10 -39 11 0 23 4 24 32 9z m6268 2
c0 -11 -49 -21 -55 -11 -2 4 -2 10 2 14 10 9 53 7 53 -3z m-7181 -115 c1 -37
0 -38 -17 -23 -10 10 -22 17 -25 17 -4 0 7 -13 25 -30 24 -21 28 -29 16 -30
-9 0 -24 -3 -33 -6 -13 -5 -16 -2 -14 17 2 13 1 29 -3 34 -3 6 -8 30 -9 53 -3
37 1 47 21 62 l25 19 7 -37 c4 -20 7 -55 7 -76z m643 52 c-6 -6 -17 -8 -26 -6
-13 3 -12 8 7 38 l22 35 3 -29 c2 -16 -1 -33 -6 -38z m6432 53 c6 -8 -63 -21
-115 -21 -45 0 -34 18 14 23 82 7 96 7 101 -2z m-164 -20 c0 -5 -42 -12 -92
-15 -51 -4 -103 -10 -115 -13 -13 -3 -23 -1 -23 4 0 6 35 14 78 20 104 13 152
15 152 4z m-6980 -94 l0 -74 -72 -13 c-40 -7 -107 -21 -148 -31 -41 -10 -75
-17 -77 -15 -2 1 48 37 110 79 61 42 126 87 142 101 17 14 33 25 38 26 4 0 7
-33 7 -73z m580 54 c0 -11 -9 -21 -22 -25 -39 -10 -42 -7 -18 19 28 30 40 32
40 6z m6143 12 c-7 -2 -21 -2 -30 0 -10 3 -4 5 12 5 17 0 24 -2 18 -5z m-60
-10 c-7 -2 -21 -2 -30 0 -10 3 -4 5 12 5 17 0 24 -2 18 -5z m-9036 -120 c-3
-10 -5 -2 -5 17 0 19 2 27 5 18 2 -10 2 -26 0 -35z m103 15 c0 -11 -7 -10 -31
2 -28 16 -23 32 6 18 14 -6 25 -15 25 -20z m-62 -11 c2 -19 -1 -27 -12 -27
-11 0 -16 10 -16 31 0 38 24 35 28 -4z m62 -38 c0 -31 -44 -8 -48 25 -3 27 -3
27 22 11 14 -10 26 -26 26 -36z m55 37 c19 -8 35 -22 35 -30 0 -20 -1 -20 -45
1 -19 9 -35 23 -35 30 0 16 3 16 45 -1z m128 -56 c5 -4 7 -15 5 -24 -5 -24
-88 16 -88 43 0 19 2 19 38 5 20 -9 41 -19 45 -24z m-125 10 c17 -8 32 -20 32
-27 0 -16 -3 -16 -45 1 -20 9 -35 22 -35 31 0 9 3 15 8 13 4 -3 22 -11 40 -18z
m-120 -8 c2 -7 -2 -10 -12 -6 -9 3 -16 11 -16 16 0 13 23 5 28 -10z m5034 -39
c21 -47 21 -53 12 -523 -5 -261 -9 -638 -9 -837 0 -199 -3 -364 -7 -368 -4 -4
-263 -2 -575 5 -1279 26 -3717 23 -4345 -7 l-138 -6 0 395 0 395 108 51 c514
243 1381 489 2293 651 700 124 1528 220 2334 271 179 11 245 15 283 18 19 2
27 -7 44 -45z m-4984 31 c12 -4 22 -13 22 -20 0 -19 -10 -17 -40 6 -26 20 -21
24 18 14z m292 -46 c0 -22 -12 -23 -50 -3 -17 9 -30 24 -30 34 0 18 2 19 40 4
27 -11 40 -22 40 -35z m-1332 -45 c0 -74 -3 -95 -23 -133 l-24 -45 -1 43 c0
24 9 60 21 83 11 23 18 43 16 45 -2 3 -10 -9 -17 -26 -7 -16 -16 -27 -21 -24
-5 2 3 30 16 61 14 30 25 62 25 69 0 8 2 14 4 14 2 0 4 -39 4 -87z m1142 35
c0 -17 -2 -17 -35 -1 -19 9 -35 22 -35 29 0 9 8 10 35 1 23 -7 35 -16 35 -29z
m71 21 c23 -11 39 -23 36 -26 -8 -7 -97 28 -97 38 0 14 18 11 61 -12z m-264
-21 c-3 -7 -5 -2 -5 12 0 14 2 19 5 13 2 -7 2 -19 0 -25z m42 13 c7 -5 12 -14
9 -21 -2 -7 -10 -4 -22 9 -19 21 -12 28 13 12z m454 -26 c58 -21 77 -32 77
-46 0 -23 4 -23 -53 -3 -36 12 -47 21 -48 37 -1 17 -2 18 -6 5 -5 -21 -12 -22
-47 -8 -26 10 -39 57 -13 48 6 -3 47 -17 90 -33z m-193 -28 c0 -14 -5 -17 -17
-12 -10 4 -30 12 -45 17 -16 6 -28 17 -28 28 0 17 2 17 45 1 31 -11 45 -21 45
-34z m-893 -18 c-1 -21 -2 -39 -3 -39 -1 0 -11 14 -22 32 -16 24 -18 37 -11
51 16 29 38 3 36 -44z m707 28 c14 -22 3 -29 -28 -18 -16 7 -26 18 -26 30 0
17 4 19 22 12 12 -4 27 -15 32 -24z m262 2 c7 -12 4 -11 -35 2 -17 6 -31 15
-31 19 0 11 58 -8 66 -21z m-346 11 c0 -5 -2 -10 -4 -10 -3 0 -8 5 -11 10 -3
6 -1 10 4 10 6 0 11 -4 11 -10z m1705 0 c18 -7 17 -8 -10 -15 -16 -4 -51 -13
-77 -20 -26 -7 -45 -9 -42 -4 10 17 64 40 76 33 7 -4 8 -3 4 4 -8 14 18 15 49
2z m-1947 -56 c13 -26 21 -48 19 -50 -4 -4 -97 33 -106 42 -7 6 41 54 54 54 6
0 21 -21 33 -46z m410 2 c4 -19 4 -19 -37 -5 -20 7 -31 18 -31 29 0 18 3 18
33 5 17 -7 33 -20 35 -29z m151 33 c23 -8 31 -17 31 -34 0 -23 -1 -24 -32 -10
-20 8 -34 22 -36 34 -4 24 -4 24 37 10z m116 -22 c7 -7 4 -8 -8 -3 -11 3 -30
9 -43 12 -13 3 -24 10 -24 15 0 10 61 -9 75 -24z m-1005 -30 c0 -19 -1 -20
-20 -2 -11 10 -20 27 -20 38 0 19 1 20 20 2 11 -10 20 -27 20 -38z m-76 5 c14
-21 26 -49 26 -63 0 -19 -6 -14 -30 28 -44 77 -42 100 4 35z m613 -69 c-2 -21
-4 -4 -4 37 0 41 2 58 4 38 2 -21 2 -55 0 -75z m627 97 c24 -9 37 -40 17 -40
-24 0 -61 21 -61 35 0 18 9 19 44 5z m-588 -8 c6 -4 14 -24 17 -46 l6 -39 -24
23 c-35 33 -34 86 1 62z m403 -3 c23 -8 31 -17 31 -34 0 -23 -1 -24 -37 -11
-26 9 -39 20 -41 34 -4 25 2 26 47 11z m129 -25 c-7 -6 -88 18 -88 27 0 4 20
1 46 -8 25 -8 44 -17 42 -19z m-285 -1 c15 -7 27 -18 27 -23 0 -13 2 -13 -53
6 -28 9 -47 22 -47 31 0 16 23 12 73 -14z m-767 -59 l7 -29 -27 24 c-17 16
-26 35 -26 54 l0 30 19 -25 c11 -13 23 -38 27 -54z m585 59 c20 -12 29 -25 29
-43 0 -14 3 -35 6 -47 8 -29 -4 -29 -37 0 -17 16 -28 37 -31 65 -4 23 -4 42
-1 42 3 0 18 -8 34 -17z m607 11 c23 -7 31 -34 10 -34 -30 0 -58 13 -58 26 0
15 12 17 48 8z m-1386 -26 c-7 -7 -12 -8 -12 -2 0 14 12 26 19 19 2 -3 -1 -11
-7 -17z m57 -32 c28 -48 31 -62 30 -132 l0 -79 -28 70 c-17 40 -30 96 -33 133
-2 34 -3 62 -2 62 1 0 16 -24 33 -54z m1152 42 c31 -9 39 -16 39 -35 0 -21 -3
-23 -22 -17 -57 17 -68 25 -68 44 0 23 1 24 51 8z m-1543 -71 c1 -58 -3 -83
-21 -118 l-22 -44 -3 42 c-2 27 4 55 17 82 26 51 27 68 1 21 -26 -48 -25 -26
2 37 13 29 23 53 24 53 1 0 2 -33 2 -73z m472 25 c0 -12 -3 -12 -15 -2 -8 7
-15 8 -15 2 0 -5 6 -15 14 -21 11 -9 14 -45 14 -159 l1 -147 -20 44 c-16 37
-19 64 -18 187 2 140 3 144 21 128 10 -10 18 -24 18 -32z m1147 42 c-3 -3 -12
-4 -19 -1 -8 3 -5 6 6 6 11 1 17 -2 13 -5z m208 -14 c26 -10 35 -30 13 -30
-35 0 -88 22 -88 37 0 16 19 14 75 -7z m-615 -22 c0 -10 -36 7 -45 22 -4 6 5
5 19 -2 14 -6 26 -15 26 -20z m186 1 c7 -12 -8 -11 -40 1 -37 14 -33 32 4 18
17 -5 33 -14 36 -19z m249 21 c-17 -7 -17 -9 -2 -9 11 -1 17 -9 17 -26 0 -23
-3 -25 -27 -19 -39 9 -43 13 -43 34 0 17 19 26 60 28 9 0 7 -3 -5 -8z m70 -10
c13 -5 14 -9 5 -9 -8 0 -24 4 -35 9 -13 5 -14 9 -5 9 8 0 24 -4 35 -9z m-663
-17 c23 -21 25 -68 2 -59 -9 3 -20 6 -25 6 -5 0 -9 16 -9 35 0 39 5 42 32 18z
m162 -35 c10 -40 7 -58 -11 -58 -30 0 -40 13 -47 63 l-7 48 29 -15 c16 -8 32
-26 36 -38z m726 32 c25 -6 86 -16 135 -24 l90 -12 -67 -7 c-53 -6 -86 -3
-149 13 -45 11 -83 20 -85 20 -2 0 -4 7 -4 16 0 10 6 14 18 10 9 -3 37 -10 62
-16z m-1614 -42 c-4 -29 -9 -90 -10 -136 -4 -96 -16 -124 -16 -36 0 102 13
224 23 224 6 0 7 -20 3 -52z m969 32 c14 -5 25 -16 25 -24 0 -12 -9 -11 -50 6
-81 33 -59 50 25 18z m185 -11 c0 -4 -16 -2 -35 4 -19 6 -35 14 -35 18 0 4 16
2 35 -4 19 -6 35 -14 35 -18z m254 11 c5 -5 6 -15 3 -24 -9 -24 -61 -5 -65 23
-3 21 -1 23 25 17 15 -4 32 -11 37 -16z m-1675 -102 c0 -89 -4 -120 -18 -147
l-18 -34 -6 44 c-4 32 0 56 14 88 10 24 17 46 14 49 -3 3 -5 1 -5 -4 0 -6 -6
-18 -13 -29 -13 -16 -14 -15 -12 16 1 29 32 129 41 129 1 0 3 -51 3 -112z
m478 -19 c-1 -38 -5 -69 -8 -69 -3 0 -11 12 -18 26 -6 15 -14 24 -17 21 -4 -3
4 -19 15 -36 20 -27 22 -42 20 -136 -1 -58 -4 -105 -8 -105 -4 0 -15 17 -24
39 -15 32 -17 68 -16 216 l2 177 28 -32 c25 -29 28 -38 26 -101z m151 35 c1
-81 -1 -94 -13 -84 -13 11 -17 70 -5 70 3 0 4 25 3 55 -1 30 2 55 6 55 5 0 9
-43 9 -96z m89 69 c0 -15 -13 -17 -22 -3 -3 6 -12 10 -18 10 -7 0 0 -8 16 -18
27 -17 42 -72 15 -56 -79 45 -91 79 -30 79 25 0 39 -4 39 -12z m1056 0 c16
-10 6 -33 -15 -33 -43 0 -68 12 -68 32 0 16 5 18 38 12 20 -4 40 -9 45 -11z
m-1013 -3 c8 -5 11 -10 5 -10 -5 0 -17 5 -25 10 -8 5 -10 10 -5 10 6 0 17 -5
25 -10z m510 -58 c0 -23 -3 -24 -37 -18 -21 3 -44 6 -50 6 -8 0 -13 15 -13 39
l0 39 50 -21 c41 -17 50 -26 50 -45z m-190 13 c0 -13 -56 15 -59 30 -3 16 0
16 28 -4 17 -12 31 -24 31 -26z m244 39 c17 -7 22 -34 7 -34 -20 0 -61 20 -61
30 0 11 30 13 54 4z m547 -9 c59 -9 80 -21 59 -35 -19 -13 -30 -13 -30 0 0 6
-25 10 -55 10 -49 0 -55 2 -55 21 0 15 5 19 18 15 9 -3 38 -8 63 -11z m-1105
-11 c18 -14 18 -15 -6 -9 l-25 6 22 -18 c12 -10 25 -31 29 -47 l7 -29 -32 19
c-27 16 -31 24 -29 56 2 42 6 45 34 22z m658 -14 c16 -16 1 -22 -38 -15 -26 5
-36 12 -36 25 0 16 4 17 32 9 17 -5 36 -13 42 -19z m-1134 -51 c0 -44 -4 -68
-10 -64 -17 10 -11 135 6 135 2 0 4 -32 4 -71z m395 29 c28 -19 35 -29 35 -55
0 -18 -2 -33 -6 -33 -3 0 -21 12 -40 28 -24 19 -34 35 -34 55 0 33 1 33 45 5z
m633 16 c13 -4 22 -14 22 -26 0 -30 -54 -21 -58 10 -4 23 0 25 36 16z m170 0
c12 -4 22 -13 22 -21 0 -10 -6 -13 -16 -9 -9 3 -24 6 -35 6 -10 0 -19 7 -19
15 0 16 12 18 48 9z m-1647 -105 c-35 -74 -39 -89 -32 -122 8 -32 5 -45 -19
-89 -28 -50 -28 -51 -32 -22 -2 17 6 49 19 76 33 67 28 74 -6 8 -22 -42 -27
-63 -23 -93 6 -47 -47 -172 -59 -140 -6 13 -8 8 -8 -16 -1 -31 -35 -102 -53
-109 -4 -2 -8 -11 -8 -20 -1 -9 -7 -28 -14 -41 -11 -20 -14 -21 -19 -7 -4 10
25 82 73 183 44 91 80 169 79 172 0 3 -80 -154 -177 -349 -98 -195 -182 -356
-188 -358 -6 -1 69 154 167 345 98 191 213 421 255 511 42 89 79 160 81 158 2
-2 -14 -41 -36 -87z m1582 74 c4 -2 7 -10 7 -17 0 -21 -74 -5 -78 18 -3 16 1
17 30 11 18 -4 36 -9 41 -12z m167 1 c0 -11 -5 -14 -16 -10 -9 3 -24 6 -35 6
-10 0 -19 5 -19 10 0 6 16 10 35 10 25 0 35 -4 35 -16z m-1231 -242 l0 -107
-29 95 c-23 74 -30 114 -30 180 l1 85 29 -73 c27 -66 30 -84 29 -180z m631
232 c0 -17 -22 -14 -28 4 -2 7 3 12 12 12 9 0 16 -7 16 -16z m670 6 c21 -7 19
-8 -17 -9 -24 -1 -43 4 -43 9 0 12 24 12 60 0z m-640 -15 c0 -8 -4 -15 -10
-15 -5 0 -10 7 -10 15 0 8 5 15 10 15 6 0 10 -7 10 -15z m50 -12 c0 -20 -34
-12 -38 9 -2 12 2 15 17 11 12 -3 21 -12 21 -20z m418 21 c34 -10 26 -24 -13
-24 -24 0 -35 5 -35 15 0 16 12 18 48 9z m219 -14 c-1 -11 -5 -20 -9 -20 -4 0
-8 9 -8 20 0 11 4 20 9 20 6 0 9 -9 8 -20z m-607 -16 c0 -8 -4 -14 -10 -14 -5
0 -10 9 -10 21 0 11 5 17 10 14 6 -3 10 -13 10 -21z m478 16 c6 0 12 -5 12
-11 0 -15 -63 -6 -68 10 -4 10 1 12 19 8 13 -4 30 -7 37 -7z m185 3 c-7 -2
-21 -2 -30 0 -10 3 -4 5 12 5 17 0 24 -2 18 -5z m-1826 -23 c-3 -11 -1 -20 3
-20 11 0 2 -33 -21 -79 l-18 -36 3 50 c3 45 22 105 34 105 2 0 2 -9 -1 -20z
m829 2 c13 -11 25 -37 29 -62 l8 -45 -34 26 c-26 20 -35 35 -37 63 -4 40 3 44
34 18z m181 -14 c-3 -7 -5 -2 -5 12 0 14 2 19 5 13 2 -7 2 -19 0 -25z m43 -4
c0 -17 -4 -22 -15 -18 -8 4 -15 17 -15 30 0 17 4 22 15 18 8 -4 15 -17 15 -30z
m154 30 c9 -3 16 -14 16 -24 0 -13 -6 -16 -25 -12 -16 3 -25 11 -25 23 0 20 8
23 34 13z m531 -4 c4 -6 -10 -10 -34 -10 -23 0 -41 5 -41 10 0 6 15 10 34 10
19 0 38 -4 41 -10z m-1822 -132 l-28 -53 -3 35 c-2 23 6 54 25 94 l28 59 3
-41 c2 -29 -5 -55 -25 -94z m867 35 l0 -35 -40 32 c-33 26 -40 38 -40 67 l0
35 40 -32 c33 -26 40 -38 40 -67z m484 87 c36 -13 35 -42 -1 -38 -20 2 -29 9
-31 26 -4 25 -3 26 32 12z m-184 -25 c0 -14 -4 -25 -10 -25 -5 0 -10 11 -10
25 0 14 5 25 10 25 6 0 10 -11 10 -25z m51 -17 c9 -33 2 -40 -22 -27 -25 13
-26 62 -2 57 9 -2 20 -15 24 -30z m199 22 c-10 -6 -11 -10 -2 -10 6 0 12 -4
12 -10 0 -5 -9 -10 -20 -10 -22 0 -28 25 -7 33 21 9 33 7 17 -3z m79 -6 c2 -2
2 -6 -1 -9 -8 -9 -58 6 -58 16 0 8 48 2 59 -7z m-244 -25 c6 -27 1 -49 -9 -38
-10 11 -17 69 -8 69 6 0 13 -14 17 -31z m329 10 c16 -15 0 -21 -38 -14 -20 4
-36 13 -36 21 0 10 9 12 33 7 17 -3 36 -9 41 -14z m-487 -51 c-2 -13 -4 -3 -4
22 0 25 2 35 4 23 2 -13 2 -33 0 -45z m200 54 c7 -4 16 -23 19 -42 6 -29 5
-32 -10 -27 -10 4 -21 7 -26 7 -4 0 -10 16 -12 35 -4 35 5 43 29 27z m323 -7
c0 -8 -4 -15 -10 -15 -5 0 -10 7 -10 15 0 8 5 15 10 15 6 0 10 -7 10 -15z m40
-6 c0 -5 -7 -9 -15 -9 -8 0 -15 7 -15 15 0 9 6 12 15 9 8 -4 15 -10 15 -15z
m-885 1 c4 -6 9 -34 11 -62 5 -52 5 -52 -15 -34 -15 14 -21 31 -21 63 0 41 11
55 25 33z m360 -2 c2 -7 6 -30 10 -51 6 -36 5 -38 -14 -27 -16 8 -21 21 -21
50 0 38 16 55 25 28z m342 6 c13 -4 21 -10 18 -14 -6 -10 -55 0 -55 11 0 10 7
11 37 3z m220 0 c-3 -3 -12 -4 -19 -1 -8 3 -5 6 6 6 11 1 17 -2 13 -5z m-1258
-204 c-1 -93 -3 -117 -10 -95 -13 42 -24 259 -14 281 14 32 24 -49 24 -186z
m939 163 c3 -30 1 -33 -22 -33 -23 0 -26 4 -26 36 0 31 3 35 23 32 17 -2 23
-11 25 -35z m-429 -60 c1 -39 -1 -40 -39 -11 -24 18 -30 29 -30 61 l0 39 34
-29 c26 -21 35 -36 35 -60z m226 41 c6 -41 2 -65 -9 -53 -7 9 -13 99 -6 99 4
0 11 -21 15 -46z m257 11 c6 -23 4 -33 -9 -42 -25 -19 -28 -17 -31 33 -2 39 0
45 14 42 10 -2 21 -16 26 -33z m111 28 c-7 -2 -19 -2 -25 0 -7 3 -2 5 12 5 14
0 19 -2 13 -5z m-59 -9 c23 -9 19 -33 -6 -43 -17 -6 -25 -4 -30 8 -16 38 -3
50 36 35z m94 -1 c-10 -2 -18 -8 -18 -13 0 -4 -11 -10 -25 -12 -16 -4 -25 -1
-25 8 0 11 29 20 70 21 9 1 8 -1 -2 -4z m-1483 -50 c-1 -48 -23 -113 -37 -113
-16 0 -7 82 12 120 11 22 22 40 23 40 2 0 3 -21 2 -47z m741 15 c26 -30 29
-38 24 -81 l-5 -49 -27 29 c-20 21 -27 40 -30 81 -1 28 -1 52 3 52 3 0 18 -15
35 -32z m380 24 c7 -4 13 -30 15 -59 3 -40 0 -54 -13 -62 -24 -15 -28 -14 -28
5 0 11 5 14 17 10 15 -6 16 -5 1 11 -9 10 -18 37 -20 61 -3 41 4 50 28 34z
m-1179 -38 c2 -40 -47 -161 -54 -132 -2 9 7 39 21 67 33 64 33 81 1 21 -32
-60 -32 -33 0 30 14 28 26 50 28 50 1 0 3 -16 4 -36z m105 -83 c-5 -3 -14 -15
-20 -26 -20 -35 -15 59 6 101 l17 37 3 -53 c2 -29 -1 -56 -6 -59z m1127 67
l10 -43 -2 38 c-2 29 0 36 11 32 7 -3 18 -5 23 -5 5 0 9 -13 9 -28 0 -22 -7
-30 -32 -40 -17 -6 -34 -10 -36 -7 -2 2 -7 24 -9 50 -7 58 12 60 26 3z m-172
-40 c-2 -13 -4 -3 -4 22 0 25 2 35 4 23 2 -13 2 -33 0 -45z m-538 -133 c0
-108 0 -110 -17 -80 -12 22 -17 60 -19 150 l-3 120 20 -40 c16 -32 19 -61 19
-150z m591 127 c0 -26 -4 -33 -17 -30 -13 2 -19 15 -21 46 -3 41 -2 42 17 30
15 -9 21 -23 21 -46z m220 44 c0 -8 -7 -17 -16 -20 -23 -9 -24 -8 -24 14 0 13
7 20 20 20 11 0 20 -6 20 -14z m-594 -23 c7 -10 14 -40 14 -67 0 -48 0 -49
-20 -31 -15 13 -20 31 -20 67 0 52 5 58 26 31z m174 -94 c0 -33 -4 -59 -8 -59
-4 0 -22 15 -38 33 -28 29 -30 37 -26 84 l4 53 34 -26 c32 -25 34 -30 34 -85z
m-443 -154 l4 -100 -54 -27 -55 -27 -6 37 c-7 47 -6 207 3 247 5 22 10 1 19
-80 22 -189 30 -185 32 20 l1 190 26 -80 c19 -58 27 -108 30 -180z m673 215
c0 -16 -4 -30 -10 -30 -5 0 -10 14 -10 30 0 17 5 30 10 30 6 0 10 -13 10 -30z
m-1158 -115 l-27 -50 -3 34 c-2 22 5 54 20 84 l23 50 6 -34 c6 -25 1 -45 -19
-84z m838 1 l0 -50 -30 29 c-26 25 -30 36 -30 84 l0 55 30 -34 c24 -28 29 -44
30 -84z m-779 7 l-20 -38 -1 43 c0 24 7 54 18 70 l17 26 3 -31 c2 -18 -6 -48
-17 -70z m1016 60 c-3 -10 -5 -4 -5 12 0 17 2 24 5 18 2 -7 2 -21 0 -30z
m-1156 -50 c-16 -32 -30 -51 -31 -43 0 19 54 123 58 111 2 -5 -10 -36 -27 -68z
m207 -65 c0 -114 -3 -148 -16 -172 l-17 -31 -3 52 c-2 33 3 63 12 82 20 38 20
55 1 21 l-14 -25 0 25 c0 14 6 34 14 44 8 11 15 25 15 30 0 6 -7 2 -15 -8 -14
-18 -15 -17 -15 23 0 35 22 101 34 101 2 0 4 -64 4 -142z m986 121 c-8 -14
-24 -10 -24 6 0 9 6 12 15 9 8 -4 12 -10 9 -15z m-524 -145 c0 -72 -2 -82 -19
-87 -18 -4 -19 3 -20 117 l-1 121 20 -35 c14 -26 19 -55 20 -116z m-630 106
c0 -6 -14 -41 -32 -78 -22 -48 -32 -62 -36 -48 -4 21 46 136 60 136 4 0 8 -5
8 -10z m810 -65 c0 -38 -11 -55 -36 -55 -2 0 -4 30 -4 67 0 65 0 66 20 48 14
-13 20 -31 20 -60z m130 27 c6 -4 -23 -22 -37 -22 -8 0 -13 13 -13 32 l0 31
23 -19 c12 -10 24 -20 27 -22z m-892 -94 l-23 -43 -3 37 c-2 24 5 52 20 80
l23 43 3 -37 c2 -24 -5 -52 -20 -80z m70 -78 c0 -111 -4 -183 -11 -187 -6 -4
-8 6 -5 26 2 17 1 31 -4 31 -9 0 -6 152 4 180 2 8 3 12 1 8 -11 -19 -23 -5
-23 26 0 26 26 96 37 96 0 0 1 -81 1 -180z m726 151 c17 -19 17 -20 -3 -31
-19 -10 -21 -8 -21 20 0 35 1 36 24 11z m-868 -103 c-45 -81 -55 -46 -13 47
30 64 32 66 39 39 6 -21 0 -40 -26 -86z m-59 65 c-3 -15 -1 -36 3 -48 6 -15 0
-37 -18 -76 -22 -45 -27 -50 -30 -31 -2 13 6 44 18 69 12 25 19 47 17 49 -2 2
-35 -59 -73 -136 -38 -77 -71 -135 -72 -130 -6 16 6 57 21 72 6 7 39 68 72
135 33 68 62 123 64 123 2 0 1 -12 -2 -27z m653 -60 c14 -37 8 -63 -15 -63
-12 0 -15 12 -15 57 0 59 8 61 30 6z m-513 -68 l-22 -40 -3 34 c-2 19 5 52 15
74 l18 40 6 -33 c6 -26 2 -44 -14 -75z m-79 -37 c-33 -63 -33 -63 -36 -30 -2
23 7 54 30 98 l33 64 3 -34 c2 -24 -7 -54 -30 -98z m-72 -35 c-23 -44 -25 -45
-26 -20 0 15 10 47 22 70 19 35 23 39 26 20 2 -12 -8 -43 -22 -70z m77 -68
l-38 -70 -3 37 c-2 27 7 56 35 110 l38 73 3 -40 c2 -31 -6 -56 -35 -110z m95
92 c0 -29 2 -62 6 -73 3 -11 -2 -31 -13 -47 l-18 -29 -7 26 c-4 16 0 38 9 56
19 36 19 64 1 31 -13 -23 -14 -23 -18 -5 -4 17 26 94 36 94 3 0 4 -24 4 -53z
m-234 -70 c-28 -61 -34 -67 -34 -32 0 15 10 49 23 75 18 39 23 43 28 26 3 -12
-5 -43 -17 -69z m314 -28 c-7 -5 -16 -9 -20 -9 -15 0 -8 69 10 99 l17 31 3
-57 c2 -38 -1 -59 -10 -64z m-246 -15 l-19 -37 -7 26 c-4 19 1 40 16 70 l23
42 3 -32 c2 -17 -5 -48 -16 -69z m96 -23 c-13 -27 -33 -54 -45 -60 -13 -6 -23
-8 -23 -4 0 3 19 42 43 86 36 68 42 76 45 53 2 -14 -7 -48 -20 -75z m-274 13
c-27 -50 -36 -19 -11 34 19 38 23 41 25 22 2 -12 -4 -38 -14 -56z m114 -15
c-31 -55 -36 -29 -7 34 19 40 25 46 27 29 2 -12 -7 -40 -20 -63z m-57 -47
c-14 -30 -16 -31 -23 -12 -5 13 -1 34 10 56 16 34 17 35 23 13 3 -13 -1 -39
-10 -57z m129 -22 c-29 -55 -41 6 -12 66 l17 37 3 -41 c2 -23 -2 -50 -8 -62z
m120 70 c0 -10 -9 -24 -21 -30 -20 -11 -20 -11 -4 19 18 36 25 39 25 11z
m-306 -68 c-17 -34 -19 -35 -22 -13 -2 13 5 39 15 58 16 30 18 32 21 13 2 -12
-5 -38 -14 -58z m146 56 c0 -25 -40 -108 -52 -108 -15 0 -8 40 14 85 24 49 38
58 38 23z m-184 -75 c-1 -38 -6 -77 -10 -88 l-9 -20 16 20 c15 18 16 18 17 3
0 -16 -12 -23 -24 -15 -2 1 -12 -5 -22 -14 -45 -39 -58 -33 -24 11 17 21 19
21 14 5 -5 -16 -4 -17 4 -5 6 8 9 17 6 22 -3 4 2 24 11 44 26 63 10 48 -30
-28 -40 -78 -55 -101 -62 -94 -4 4 106 226 112 226 2 0 3 -30 1 -67z m112 10
c-1 -16 0 -34 3 -42 2 -7 -1 -15 -8 -18 -7 -3 -10 4 -7 19 5 22 5 22 -10 -2
-12 -20 -15 -21 -16 -7 0 18 27 77 35 77 2 0 4 -12 3 -27z m-66 -69 c-18 -35
-20 -36 -26 -17 -5 14 1 37 16 65 22 41 23 42 26 16 2 -15 -5 -44 -16 -64z
m135 51 c-4 -8 -11 -15 -17 -15 -6 0 -6 7 2 20 14 22 24 19 15 -5z"/>
<path d="M2430 3066 c0 -2 8 -10 18 -17 15 -13 16 -12 3 4 -13 16 -21 21 -21
13z"/>
<path d="M2490 2871 c0 -5 5 -13 10 -16 6 -3 10 -2 10 4 0 5 -4 13 -10 16 -5
3 -10 2 -10 -4z"/>
<path d="M2082 2875 c-7 -15 -11 -30 -8 -32 7 -7 28 36 24 49 -2 6 -9 -2 -16
-17z"/>
<path d="M2540 2882 c0 -5 10 -17 21 -28 22 -19 22 -19 10 3 -12 24 -31 39
-31 25z"/>
<path d="M2025 2760 c-4 -12 -5 -24 -2 -27 3 -2 8 5 12 17 4 12 5 24 2 27 -3
2 -8 -5 -12 -17z"/>
</g>
</svg>
